<?xml version="1.0" encoding="utf-8"?>
<!-- Generator: Adobe Illustrator 27.5.0, SVG Export Plug-In . SVG Version: 6.00 Build 0)  -->
<svg version="1.1" id="Layer_1" xmlns="http://www.w3.org/2000/svg" xmlns:xlink="http://www.w3.org/1999/xlink" x="0px" y="0px"
	 viewBox="0 0 500 400" style="enable-background:new 0 0 500 400;" xml:space="preserve">
<g id="XMLID_301_">
	<g id="XMLID_28_">
		<path id="XMLID_26_" style="fill:#E5EAFE;" d="M232.452,361.933c115.624,15.534,263.414-95.403,214.872-171.072
			c-14.418-22.475-43.007-31.122-62.021-49.868c-17.314-17.07-25.766-41.612-43.281-58.476
			c-17.036-16.404-42.198-23.922-65.441-19.554c-25.119,4.721-46.778,22.093-72.155,25.132c-26.763,3.205-40.081-7.93-79.005,10.824
			c-50.332,24.25-56.248,57.503-56.045,114.897c0.326,92.358,55.47,50.405,43.907,134.677c-0.738,5.381-1.45,11.244,1.327,15.911
			c5.126,8.614,17.749,7.448,27.51,5.166C174.123,362.085,199.515,357.728,232.452,361.933z"/>
		<g id="XMLID_27_">
			<path style="fill:#E5EAFE;" d="M131.68,370.504c-7.808,0-13.204-2.447-16.107-7.327c-3.055-5.134-2.165-11.618-1.45-16.827
				c5.977-43.562-5.224-54.045-18.195-66.184c-12.652-11.841-26.992-25.262-27.16-72.833c-0.105-29.697,1.457-53.376,9.417-72.41
				c8.438-20.175,23.492-34.612,48.814-46.812c27.268-13.138,42.169-12.166,57.947-11.137c7.329,0.478,14.908,0.972,23.845-0.098
				c13.792-1.652,26.782-7.552,39.345-13.258c11.242-5.107,22.868-10.387,35.14-12.693c24.246-4.557,50.352,3.243,68.125,20.356
				c9.208,8.866,16.099,19.925,22.764,30.621c6.471,10.384,13.161,21.122,21.944,29.781c8.1,7.986,18.06,14.294,27.692,20.394
				c13.601,8.614,27.665,17.52,36.452,31.218c7.652,11.928,10.892,25.115,9.631,39.194c-1.177,13.135-6.229,26.793-15.016,40.594
				c-18.328,28.785-51.733,56.085-91.648,74.9c-34.038,16.044-69.502,24.456-102.122,24.457c-7.982,0-15.788-0.503-23.368-1.522
				c-32.287-4.121-57.631-0.413-93.081,7.877C139.771,369.935,135.445,370.504,131.68,370.504z M172.317,77.65
				c-11.795,0-25.002,2.024-44.791,11.558C78.019,113.06,69.764,144.925,69.984,207.33c0.166,47.046,14.302,60.276,26.775,71.949
				c6.511,6.093,12.66,11.848,16.444,21.661c4.216,10.934,4.891,25.416,2.125,45.576c-0.689,5.022-1.547,11.271,1.291,16.04
				c4.001,6.724,13.339,8.426,27.752,5.054c35.588-8.322,61.032-12.045,93.516-7.899c7.592,1.02,15.304,1.507,23.061,1.507
				c77.712,0.004,161.036-48.755,192.893-98.79c12.664-19.89,23.88-49.652,5.387-78.477c-8.641-13.471-22.59-22.304-36.079-30.847
				c-9.686-6.134-19.702-12.478-27.895-20.555c-8.885-8.76-15.615-19.56-22.122-30.003c-6.625-10.633-13.476-21.627-22.575-30.388
				c-17.494-16.845-43.188-24.522-67.057-20.037c-12.128,2.279-23.685,7.529-34.862,12.605
				c-12.647,5.744-25.725,11.685-39.704,13.358c-9.048,1.084-16.684,0.586-24.069,0.104C180.704,77.918,176.603,77.65,172.317,77.65
				z"/>
		</g>
	</g>
	<g id="XMLID_298_">
		<path id="XMLID_57_" style="fill:#C5C8E3;" d="M446.858,251.656l-0.624-0.078c-6.416-0.798-9.952-7.891-6.699-13.478
			c8.594-14.761,15.829-30.313,21.577-46.397c4.973-13.916,0.476-15.581-3.677-22.754c-8.821-15.236,1.314-38.509-11.923-50.116
			c-2.116-1.855-4.722-3.24-6.288-5.578c-4.401-6.573,0.905-31.465-12.385-52.711c-5.395-8.624-18.565-17.757-26.31-0.439
			c-10.204,22.816-9.699,59.84-35.701,72.969c-33.946,17.139-69.224-26.603-93.979,117.669
			c-5.529,32.222-19.867,64.025,56.41,74.117C379.933,331.829,478.694,255.615,446.858,251.656z"/>
		<path id="XMLID_60_" style="fill:#C5C8E3;" d="M241.342,256.414c-5.129-14.373-19.773-27.488-18.756-56.855
			c0.396-11.453,3.275-23.789-2.346-33.776c-2.231-3.964-5.615-7.124-8.621-10.538c-15.243-17.311-25.198-50.443-51.961-54.568
			c-17.081-2.633-75.176,14.66-125.406,44.789c-5.496,3.296-5.925,11.093-0.818,14.964c16.844,12.77,45.128,11.946,61.117,27.611
			c4.81,4.712,8.324,10.794,13.88,14.597c16.91,11.574,44.315-3.535,51.969,4.491c6.608,6.93-3.073,30.77-4.326,46.628
			c-1.016,12.867,3.829,27.936,16.016,32.187c10.277,3.585,22.016-1.8,32.366,1.57c11.881,3.869,19.905,25.643,32.322,14.779
			C246.82,293.507,245.279,267.447,241.342,256.414z"/>
		<path id="XMLID_61_" style="fill:#C5C8E3;" d="M202.112,91.255c-10.753-54.794,28.438-66.32,38.094-61.47
			c10.475,5.261,6.012,34.728,19.927,45.37c5.141,3.931,11.842,4.974,17.94,7.141c22.089,7.849,36.315,33.294,31.433,56.223
			c-3.972,18.653-18.586,34.072-20.759,53.019c-1.144,9.978-0.331,12.222,14.758,94.64c1.51,8.25-8.064,13.926-14.574,8.639
			c-4.798-3.897-8.995-7.523-10.447-9.76c-8.401-12.94-11.475-27.165-13.302-42.269C258.623,188.549,213.315,148.342,202.112,91.255
			z"/>
	</g>
	<g id="XMLID_285_">
		<g id="XMLID_72_">
			<path id="XMLID_71_" style="fill:#DAE6EA;" d="M335.519,174.912c-35.507,3.463-56.709,3.728-92.072,0.02
				c-1.611-0.169-2.838-1.526-2.838-3.146v-60.249c0-1.911,1.687-3.383,3.582-3.132c33.319,4.415,56.248,4.408,90.619-0.016
				c1.891-0.243,3.57,1.228,3.57,3.134v60.241C338.379,173.392,337.139,174.754,335.519,174.912z"/>
			<path id="XMLID_29_" style="fill:#ECF9FF;" d="M340.455,170.951c-35.507,3.463-56.709,3.728-92.072,0.02
				c-1.611-0.169-2.838-1.526-2.838-3.146v-60.249c0-1.911,1.687-3.384,3.582-3.132c33.319,4.415,56.248,4.408,90.619-0.016
				c1.891-0.243,3.57,1.228,3.57,3.134v60.241C343.315,169.431,342.076,170.792,340.455,170.951z"/>
			<g id="XMLID_141_">
				<g id="XMLID_140_">
					<path id="XMLID_105_" style="fill:#FFFFFF;" d="M266.034,117.822h-10.508c-0.683,0-1.236-0.554-1.236-1.236
						s0.553-1.236,1.236-1.236h10.508c0.683,0,1.236,0.553,1.236,1.236S266.717,117.822,266.034,117.822z"/>
					<path id="XMLID_106_" style="fill:#FFFFFF;" d="M287.422,117.822h-10.508c-0.683,0-1.236-0.554-1.236-1.236
						s0.553-1.236,1.236-1.236h10.508c0.683,0,1.236,0.553,1.236,1.236S288.105,117.822,287.422,117.822z"/>
					<path id="XMLID_107_" style="fill:#FFFFFF;" d="M308.811,117.822h-10.508c-0.683,0-1.236-0.554-1.236-1.236
						s0.553-1.236,1.236-1.236h10.508c0.683,0,1.236,0.553,1.236,1.236S309.493,117.822,308.811,117.822z"/>
					<path id="XMLID_108_" style="fill:#FFFFFF;" d="M330.199,117.822h-10.508c-0.683,0-1.236-0.554-1.236-1.236
						s0.553-1.236,1.236-1.236h10.508c0.683,0,1.236,0.553,1.236,1.236S330.882,117.822,330.199,117.822z"/>
				</g>
				<g id="XMLID_138_">
					<path id="XMLID_112_" style="fill:#FFFFFF;" d="M266.034,128.902h-10.508c-0.683,0-1.236-0.553-1.236-1.236
						c0-0.683,0.553-1.236,1.236-1.236h10.508c0.683,0,1.236,0.554,1.236,1.236C267.27,128.348,266.717,128.902,266.034,128.902z"/>
					<path id="XMLID_111_" style="fill:#FFFFFF;" d="M287.422,128.902h-10.508c-0.683,0-1.236-0.553-1.236-1.236
						c0-0.683,0.553-1.236,1.236-1.236h10.508c0.683,0,1.236,0.554,1.236,1.236C288.659,128.348,288.105,128.902,287.422,128.902z"
						/>
					<path id="XMLID_110_" style="fill:#FFFFFF;" d="M308.811,128.902h-10.508c-0.683,0-1.236-0.553-1.236-1.236
						c0-0.683,0.553-1.236,1.236-1.236h10.508c0.683,0,1.236,0.554,1.236,1.236C310.047,128.348,309.493,128.902,308.811,128.902z"
						/>
					<path id="XMLID_109_" style="fill:#FFFFFF;" d="M330.199,128.902h-10.508c-0.683,0-1.236-0.553-1.236-1.236
						c0-0.683,0.553-1.236,1.236-1.236h10.508c0.683,0,1.236,0.554,1.236,1.236C331.435,128.348,330.882,128.902,330.199,128.902z"
						/>
				</g>
				<g id="XMLID_132_">
					<path id="XMLID_116_" style="fill:#FFFFFF;" d="M266.034,140.262h-10.508c-0.683,0-1.236-0.553-1.236-1.236
						c0-0.683,0.553-1.236,1.236-1.236h10.508c0.683,0,1.236,0.553,1.236,1.236C267.27,139.708,266.717,140.262,266.034,140.262z"/>
					<path id="XMLID_115_" style="fill:#FFFFFF;" d="M287.422,140.262h-10.508c-0.683,0-1.236-0.553-1.236-1.236
						c0-0.683,0.553-1.236,1.236-1.236h10.508c0.683,0,1.236,0.553,1.236,1.236C288.659,139.708,288.105,140.262,287.422,140.262z"
						/>
					<path id="XMLID_114_" style="fill:#FFFFFF;" d="M308.811,140.262h-10.508c-0.683,0-1.236-0.553-1.236-1.236
						c0-0.683,0.553-1.236,1.236-1.236h10.508c0.683,0,1.236,0.553,1.236,1.236C310.047,139.708,309.493,140.262,308.811,140.262z"
						/>
					<path id="XMLID_113_" style="fill:#FFFFFF;" d="M330.199,140.262h-10.508c-0.683,0-1.236-0.553-1.236-1.236
						c0-0.683,0.553-1.236,1.236-1.236h10.508c0.683,0,1.236,0.553,1.236,1.236C331.435,139.708,330.882,140.262,330.199,140.262z"
						/>
				</g>
				<g id="XMLID_129_">
					<path id="XMLID_121_" style="fill:#FFFFFF;" d="M266.034,151.181h-10.508c-0.683,0-1.236-0.554-1.236-1.236
						c0-0.683,0.553-1.236,1.236-1.236h10.508c0.683,0,1.236,0.553,1.236,1.236C267.27,150.628,266.717,151.181,266.034,151.181z"/>
					<path id="XMLID_119_" style="fill:#FFFFFF;" d="M287.422,151.181h-10.508c-0.683,0-1.236-0.554-1.236-1.236
						c0-0.683,0.553-1.236,1.236-1.236h10.508c0.683,0,1.236,0.553,1.236,1.236C288.659,150.628,288.105,151.181,287.422,151.181z"
						/>
					<path id="XMLID_118_" style="fill:#FFFFFF;" d="M308.811,151.181h-10.508c-0.683,0-1.236-0.554-1.236-1.236
						c0-0.683,0.553-1.236,1.236-1.236h10.508c0.683,0,1.236,0.553,1.236,1.236C310.047,150.628,309.493,151.181,308.811,151.181z"
						/>
					<path id="XMLID_117_" style="fill:#FFFFFF;" d="M330.199,151.181h-10.508c-0.683,0-1.236-0.554-1.236-1.236
						c0-0.683,0.553-1.236,1.236-1.236h10.508c0.683,0,1.236,0.553,1.236,1.236C331.435,150.628,330.882,151.181,330.199,151.181z"
						/>
				</g>
				<g id="XMLID_127_">
					<path id="XMLID_126_" style="fill:#FFFFFF;" d="M266.034,160.791h-10.508c-0.683,0-1.236-0.553-1.236-1.236
						c0-0.683,0.553-1.236,1.236-1.236h10.508c0.683,0,1.236,0.553,1.236,1.236C267.27,160.237,266.717,160.791,266.034,160.791z"/>
					<path id="XMLID_125_" style="fill:#FFFFFF;" d="M287.422,160.791h-10.508c-0.683,0-1.236-0.553-1.236-1.236
						c0-0.683,0.553-1.236,1.236-1.236h10.508c0.683,0,1.236,0.553,1.236,1.236C288.659,160.237,288.105,160.791,287.422,160.791z"
						/>
					<path id="XMLID_123_" style="fill:#FFFFFF;" d="M308.811,160.791h-10.508c-0.683,0-1.236-0.553-1.236-1.236
						c0-0.683,0.553-1.236,1.236-1.236h10.508c0.683,0,1.236,0.553,1.236,1.236C310.047,160.237,309.493,160.791,308.811,160.791z"
						/>
					<path id="XMLID_122_" style="fill:#FFFFFF;" d="M330.199,160.791h-10.508c-0.683,0-1.236-0.553-1.236-1.236
						c0-0.683,0.553-1.236,1.236-1.236h10.508c0.683,0,1.236,0.553,1.236,1.236C331.435,160.237,330.882,160.791,330.199,160.791z"
						/>
				</g>
			</g>
		</g>
		<g id="XMLID_74_">
			<path id="XMLID_73_" style="fill:#EDF2F2;" d="M379.643,218.758c-41.557-2.139-70.598-3.264-110.301-0.108
				c-1.838,0.146-3.413-1.307-3.413-3.151v-69.732c0-1.865,1.606-3.331,3.462-3.146c31.504,3.142,67.586,1.948,110.254-0.197
				c1.806-0.091,3.325,1.348,3.325,3.157v70.018C382.97,217.411,381.45,218.851,379.643,218.758z"/>
			<path id="XMLID_32_" style="fill:#FFFFFF;" d="M383.169,224.16c-41.557-2.139-70.598-3.264-110.301-0.108
				c-1.838,0.146-3.413-1.307-3.413-3.151V151.17c0-1.865,1.606-3.331,3.462-3.146c31.504,3.142,67.586,1.948,110.254-0.197
				c1.806-0.091,3.325,1.348,3.325,3.157v70.018C386.496,222.812,384.977,224.253,383.169,224.16z"/>
			<g id="XMLID_189_">
				<path style="fill:#444244;" d="M290.039,181.396h1.386v7.185c0,2.852-1.402,3.728-3.25,3.728c-0.51,0-1.131-0.111-1.482-0.255
					l0.207-1.131c0.287,0.112,0.701,0.207,1.163,0.207c1.243,0,1.975-0.558,1.975-2.661V181.396z"/>
				<path style="fill:#444244;" d="M297.957,192.134l-0.111-0.972h-0.048c-0.43,0.605-1.259,1.147-2.358,1.147
					c-1.561,0-2.358-1.099-2.358-2.214c0-1.864,1.657-2.883,4.636-2.867v-0.159c0-0.637-0.175-1.784-1.753-1.784
					c-0.717,0-1.466,0.223-2.007,0.574l-0.319-0.924c0.637-0.414,1.561-0.685,2.533-0.685c2.358,0,2.931,1.609,2.931,3.154v2.884
					c0,0.669,0.032,1.322,0.127,1.848H297.957z M297.75,188.199c-1.529-0.032-3.266,0.239-3.266,1.736
					c0,0.908,0.605,1.338,1.322,1.338c1.004,0,1.641-0.637,1.864-1.29c0.048-0.143,0.08-0.303,0.08-0.446V188.199z"/>
				<path style="fill:#444244;" d="M301.78,184.423l1.514,4.333c0.255,0.701,0.462,1.338,0.621,1.975h0.048
					c0.175-0.637,0.398-1.275,0.653-1.975l1.497-4.333h1.466l-3.027,7.711h-1.338l-2.931-7.711H301.78z"/>
				<path style="fill:#444244;" d="M313.108,192.134l-0.112-0.972h-0.048c-0.43,0.605-1.259,1.147-2.358,1.147
					c-1.561,0-2.358-1.099-2.358-2.214c0-1.864,1.657-2.883,4.636-2.867v-0.159c0-0.637-0.175-1.784-1.753-1.784
					c-0.717,0-1.466,0.223-2.007,0.574l-0.319-0.924c0.637-0.414,1.561-0.685,2.533-0.685c2.358,0,2.931,1.609,2.931,3.154v2.884
					c0,0.669,0.032,1.322,0.127,1.848H313.108z M312.901,188.199c-1.529-0.032-3.266,0.239-3.266,1.736
					c0,0.908,0.605,1.338,1.322,1.338c1.004,0,1.641-0.637,1.864-1.29c0.048-0.143,0.08-0.303,0.08-0.446V188.199z"/>
				<path style="fill:#444244;" d="M319.751,190.445c0.621,0.382,1.529,0.701,2.485,0.701c1.418,0,2.246-0.749,2.246-1.832
					c0-1.004-0.574-1.577-2.023-2.135c-1.753-0.621-2.836-1.529-2.836-3.043c0-1.673,1.386-2.915,3.473-2.915
					c1.099,0,1.896,0.255,2.374,0.526l-0.382,1.131c-0.35-0.191-1.067-0.51-2.039-0.51c-1.466,0-2.023,0.876-2.023,1.609
					c0,1.004,0.653,1.497,2.135,2.071c1.816,0.701,2.74,1.577,2.74,3.154c0,1.657-1.227,3.091-3.76,3.091
					c-1.035,0-2.166-0.303-2.74-0.685L319.751,190.445z"/>
				<path style="fill:#444244;" d="M333.34,191.847c-0.366,0.191-1.179,0.446-2.214,0.446c-2.326,0-3.839-1.577-3.839-3.935
					c0-2.374,1.625-4.094,4.142-4.094c0.828,0,1.561,0.207,1.944,0.398l-0.319,1.083c-0.334-0.191-0.86-0.366-1.625-0.366
					c-1.768,0-2.724,1.306-2.724,2.915c0,1.784,1.147,2.884,2.676,2.884c0.797,0,1.322-0.207,1.721-0.382L333.34,191.847z"/>
				<path style="fill:#444244;" d="M334.981,186.829c0-0.908-0.016-1.689-0.064-2.406h1.227l0.048,1.514h0.064
					c0.35-1.036,1.195-1.689,2.135-1.689c0.159,0,0.271,0.016,0.398,0.048v1.322c-0.143-0.032-0.287-0.048-0.478-0.048
					c-0.988,0-1.689,0.749-1.88,1.8c-0.032,0.191-0.064,0.414-0.064,0.653v4.11h-1.386V186.829z"/>
				<path style="fill:#444244;" d="M341.815,182.256c0.016,0.478-0.335,0.86-0.892,0.86c-0.494,0-0.844-0.383-0.844-0.86
					c0-0.494,0.366-0.876,0.876-0.876C341.481,181.38,341.815,181.763,341.815,182.256z M340.254,192.134v-7.711h1.402v7.711
					H340.254z"/>
				<path style="fill:#444244;" d="M343.982,186.94c0-0.988-0.032-1.784-0.064-2.517h1.259l0.064,1.322h0.032
					c0.573-0.94,1.482-1.497,2.74-1.497c1.864,0,3.266,1.577,3.266,3.919c0,2.772-1.689,4.142-3.505,4.142
					c-1.02,0-1.912-0.446-2.374-1.211h-0.032v4.19h-1.386V186.94z M345.368,188.995c0,0.207,0.032,0.398,0.064,0.573
					c0.255,0.972,1.099,1.641,2.103,1.641c1.481,0,2.342-1.211,2.342-2.979c0-1.545-0.813-2.868-2.294-2.868
					c-0.956,0-1.848,0.685-2.119,1.736c-0.048,0.175-0.096,0.382-0.096,0.574V188.995z"/>
				<path style="fill:#444244;" d="M354.736,182.209v2.214h2.007v1.067h-2.007v4.158c0,0.956,0.271,1.497,1.051,1.497
					c0.367,0,0.637-0.048,0.813-0.096l0.064,1.051c-0.271,0.111-0.701,0.191-1.243,0.191c-0.653,0-1.179-0.207-1.513-0.59
					c-0.398-0.414-0.542-1.099-0.542-2.007v-4.206h-1.195v-1.067h1.195v-1.848L354.736,182.209z"/>
			</g>
		</g>
		<g id="XMLID_91_">
			<path id="XMLID_89_" style="fill:#DAE6EA;" d="M293.85,238.104c-27.03,3.102-44.262,3.44-69.218,0.055
				c-1.57-0.213-2.746-1.551-2.746-3.135v-43.352c0-1.85,1.587-3.304,3.431-3.15c26.231,2.197,42.961,3.04,67.804,0.141
				c1.88-0.219,3.536,1.245,3.536,3.138v43.161C296.658,236.569,295.447,237.921,293.85,238.104z"/>
			<path id="XMLID_31_" style="fill:#ECF9FF;" d="M289.772,241.579c-27.03,3.102-44.262,3.44-69.217,0.055
				c-1.57-0.213-2.746-1.551-2.746-3.135v-43.352c0-1.85,1.587-3.304,3.431-3.15c26.231,2.197,42.961,3.039,67.804,0.141
				c1.88-0.219,3.536,1.245,3.536,3.138v43.161C292.58,240.044,291.369,241.396,289.772,241.579z"/>
			<g id="XMLID_237_">
				<g id="XMLID_227_">
					<path id="XMLID_220_" style="fill:#FFFFFF;" d="M241.151,211.617h-15.738c-1.359,0-2.461-1.102-2.461-2.46
						c0-1.359,1.102-2.46,2.461-2.46h15.738c1.359,0,2.46,1.102,2.46,2.46C243.611,210.516,242.51,211.617,241.151,211.617z"/>
					<path id="XMLID_222_" style="fill:#FFFFFF;" d="M263.063,211.617h-15.738c-1.359,0-2.46-1.102-2.46-2.46
						c0-1.359,1.101-2.46,2.46-2.46h15.738c1.359,0,2.461,1.102,2.461,2.46C265.524,210.516,264.422,211.617,263.063,211.617z"/>
					<path id="XMLID_223_" style="fill:#FFFFFF;" d="M284.976,211.617h-15.738c-1.359,0-2.461-1.102-2.461-2.46
						c0-1.359,1.102-2.46,2.461-2.46h15.738c1.359,0,2.46,1.102,2.46,2.46C287.436,210.516,286.335,211.617,284.976,211.617z"/>
				</g>
				<g id="XMLID_228_">
					<path id="XMLID_231_" style="fill:#FFFFFF;" d="M241.151,220.474h-15.738c-1.359,0-2.461-1.102-2.461-2.46
						c0-1.359,1.102-2.461,2.461-2.461h15.738c1.359,0,2.46,1.102,2.46,2.461C243.611,219.372,242.51,220.474,241.151,220.474z"/>
					<path id="XMLID_230_" style="fill:#FFFFFF;" d="M263.063,220.474h-15.738c-1.359,0-2.46-1.102-2.46-2.46
						c0-1.359,1.101-2.461,2.46-2.461h15.738c1.359,0,2.461,1.102,2.461,2.461C265.524,219.372,264.422,220.474,263.063,220.474z"/>
					<path id="XMLID_229_" style="fill:#FFFFFF;" d="M284.976,220.474h-15.738c-1.359,0-2.461-1.102-2.461-2.46
						c0-1.359,1.102-2.461,2.461-2.461h15.738c1.359,0,2.46,1.102,2.46,2.461C287.436,219.372,286.335,220.474,284.976,220.474z"/>
				</g>
				<g id="XMLID_232_">
					<path id="XMLID_236_" style="fill:#FFFFFF;" d="M241.151,229.33h-15.738c-1.359,0-2.461-1.102-2.461-2.46
						c0-1.359,1.102-2.46,2.461-2.46h15.738c1.359,0,2.46,1.102,2.46,2.46C243.611,228.229,242.51,229.33,241.151,229.33z"/>
					<path id="XMLID_235_" style="fill:#FFFFFF;" d="M263.063,229.33h-15.738c-1.359,0-2.46-1.102-2.46-2.46
						c0-1.359,1.101-2.46,2.46-2.46h15.738c1.359,0,2.461,1.102,2.461,2.46C265.524,228.229,264.422,229.33,263.063,229.33z"/>
					<path id="XMLID_234_" style="fill:#FFFFFF;" d="M284.976,229.33h-15.738c-1.359,0-2.461-1.102-2.461-2.46
						c0-1.359,1.102-2.46,2.461-2.46h15.738c1.359,0,2.46,1.102,2.46,2.46C287.436,228.229,286.335,229.33,284.976,229.33z"/>
				</g>
			</g>
		</g>
		<g id="XMLID_98_">
			<path id="XMLID_97_" style="fill:#DAE6EA;" d="M154.95,194.628c-28.056,12.233-42.577-2.792-69.217,0.055
				c-1.575,0.168-2.746-1.551-2.746-3.135v-43.352c0-1.85,1.694-3.788,3.431-3.15c26.204,9.631,43.772-2.878,67.804,0.141
				c1.878,0.236,3.536,1.245,3.536,3.138v43.161C157.757,193.093,156.423,193.985,154.95,194.628z"/>
			<path id="XMLID_55_" style="fill:#ECF9FF;" d="M158.146,200.293c-28.056,12.233-42.577-2.792-69.217,0.055
				c-1.575,0.168-2.746-1.551-2.746-3.135V153.86c0-1.85,1.694-3.788,3.431-3.15c26.204,9.631,43.772-2.878,67.804,0.141
				c1.878,0.236,3.536,1.245,3.536,3.138v43.161C160.953,198.758,159.619,199.65,158.146,200.293z"/>
			<g id="XMLID_271_">
				<g id="XMLID_245_">
					<path id="XMLID_238_" style="fill:#FFFFFF;" d="M125.126,163.781H92.875c-0.623,0-1.127-0.505-1.127-1.127
						c0-0.623,0.505-1.127,1.127-1.127h32.251c0.623,0,1.127,0.505,1.127,1.127C126.254,163.277,125.749,163.781,125.126,163.781z"
						/>
					<path id="XMLID_242_" style="fill:#FFFFFF;" d="M154.26,163.781h-21.099c-0.622,0-1.127-0.505-1.127-1.127
						c0-0.623,0.505-1.127,1.127-1.127h21.099c0.622,0,1.127,0.505,1.127,1.127C155.387,163.277,154.883,163.781,154.26,163.781z"/>
				</g>
				<g id="XMLID_246_">
					<path id="XMLID_248_" style="fill:#FFFFFF;" d="M122.009,168.099h32.251c0.622,0,1.127-0.505,1.127-1.127
						c0-0.622-0.505-1.127-1.127-1.127h-32.251c-0.622,0-1.127,0.505-1.127,1.127C120.882,167.594,121.387,168.099,122.009,168.099z
						"/>
					<path id="XMLID_247_" style="fill:#FFFFFF;" d="M92.875,168.099h21.099c0.622,0,1.127-0.505,1.127-1.127
						c0-0.622-0.505-1.127-1.127-1.127H92.875c-0.623,0-1.127,0.505-1.127,1.127C91.748,167.594,92.253,168.099,92.875,168.099z"/>
				</g>
				<g id="XMLID_249_">
					<path id="XMLID_253_" style="fill:#FFFFFF;" d="M125.126,172.416H92.875c-0.623,0-1.127-0.505-1.127-1.127
						c0-0.622,0.505-1.127,1.127-1.127h32.251c0.623,0,1.127,0.505,1.127,1.127C126.254,171.911,125.749,172.416,125.126,172.416z"
						/>
					<path id="XMLID_251_" style="fill:#FFFFFF;" d="M154.26,172.416h-21.099c-0.622,0-1.127-0.505-1.127-1.127
						c0-0.622,0.505-1.127,1.127-1.127h21.099c0.622,0,1.127,0.505,1.127,1.127C155.387,171.911,154.883,172.416,154.26,172.416z"/>
				</g>
				<g id="XMLID_256_">
					<path id="XMLID_258_" style="fill:#FFFFFF;" d="M122.009,176.733h32.251c0.622,0,1.127-0.505,1.127-1.127
						c0-0.622-0.505-1.127-1.127-1.127h-32.251c-0.622,0-1.127,0.505-1.127,1.127C120.882,176.229,121.387,176.733,122.009,176.733z
						"/>
					<path id="XMLID_257_" style="fill:#FFFFFF;" d="M92.875,176.733h21.099c0.622,0,1.127-0.505,1.127-1.127
						c0-0.622-0.505-1.127-1.127-1.127H92.875c-0.623,0-1.127,0.505-1.127,1.127C91.748,176.229,92.253,176.733,92.875,176.733z"/>
				</g>
				<g id="XMLID_259_">
					<path id="XMLID_261_" style="fill:#FFFFFF;" d="M125.126,181.051H92.875c-0.623,0-1.127-0.505-1.127-1.127
						c0-0.623,0.505-1.127,1.127-1.127h32.251c0.623,0,1.127,0.505,1.127,1.127C126.254,180.546,125.749,181.051,125.126,181.051z"
						/>
					<path id="XMLID_260_" style="fill:#FFFFFF;" d="M154.26,181.051h-21.099c-0.622,0-1.127-0.505-1.127-1.127
						c0-0.623,0.505-1.127,1.127-1.127h21.099c0.622,0,1.127,0.505,1.127,1.127C155.387,180.546,154.883,181.051,154.26,181.051z"/>
				</g>
				<g id="XMLID_262_">
					<path id="XMLID_264_" style="fill:#FFFFFF;" d="M122.009,185.368h32.251c0.622,0,1.127-0.505,1.127-1.127
						c0-0.622-0.505-1.127-1.127-1.127h-32.251c-0.622,0-1.127,0.505-1.127,1.127C120.882,184.863,121.387,185.368,122.009,185.368z
						"/>
					<path id="XMLID_263_" style="fill:#FFFFFF;" d="M92.875,185.368h21.099c0.622,0,1.127-0.505,1.127-1.127
						c0-0.622-0.505-1.127-1.127-1.127H92.875c-0.623,0-1.127,0.505-1.127,1.127C91.748,184.863,92.253,185.368,92.875,185.368z"/>
				</g>
				<g id="XMLID_265_">
					<path id="XMLID_267_" style="fill:#FFFFFF;" d="M125.126,189.686H92.875c-0.623,0-1.127-0.505-1.127-1.127
						c0-0.622,0.505-1.127,1.127-1.127h32.251c0.623,0,1.127,0.505,1.127,1.127C126.254,189.181,125.749,189.686,125.126,189.686z"
						/>
					<path id="XMLID_266_" style="fill:#FFFFFF;" d="M154.26,189.686h-21.099c-0.622,0-1.127-0.505-1.127-1.127
						c0-0.622,0.505-1.127,1.127-1.127h21.099c0.622,0,1.127,0.505,1.127,1.127C155.387,189.181,154.883,189.686,154.26,189.686z"/>
				</g>
				<g id="XMLID_268_">
					<path id="XMLID_270_" style="fill:#FFFFFF;" d="M122.009,194.003h32.251c0.622,0,1.127-0.505,1.127-1.127
						c0-0.622-0.505-1.127-1.127-1.127h-32.251c-0.622,0-1.127,0.505-1.127,1.127C120.882,193.498,121.387,194.003,122.009,194.003z
						"/>
					<path id="XMLID_269_" style="fill:#FFFFFF;" d="M92.875,194.003h21.099c0.622,0,1.127-0.505,1.127-1.127
						c0-0.622-0.505-1.127-1.127-1.127H92.875c-0.623,0-1.127,0.505-1.127,1.127C91.748,193.498,92.253,194.003,92.875,194.003z"/>
				</g>
			</g>
		</g>
		<g id="XMLID_70_">
			<path id="XMLID_69_" style="fill:#E1F7FF;" d="M401.983,175.879c-27.293,4.053-45.484-6.19-74.866,0.029
				c-1.52,0.322-2.668-1.57-2.668-3.124v-35.864c0-1.929,1.714-3.405,3.622-3.127c28.292,4.114,40.973-4.989,72.923,0.103
				c1.932,0.308,3.692,1.158,3.692,3.115v35.74C404.687,174.318,403.534,175.648,401.983,175.879z"/>
			<path id="XMLID_30_" style="fill:#D3E7F1;" d="M405.509,172.481c-27.293,4.053-45.484-6.19-74.866,0.029
				c-1.52,0.322-2.668-1.57-2.668-3.124v-35.865c0-1.929,1.714-3.405,3.622-3.127c28.292,4.114,40.973-4.989,72.923,0.102
				c1.932,0.308,3.693,1.158,3.693,3.115v35.74C408.214,170.92,407.061,172.251,405.509,172.481z"/>
			<g id="XMLID_188_">
				<g id="XMLID_148_">
					<circle id="XMLID_142_" style="fill:#FFFFFF;" cx="338.63" cy="140.117" r="1.686"/>
					<path id="XMLID_143_" style="fill:#FFFFFF;" d="M352.356,141.803h-6.749c-0.931,0-1.686-0.755-1.686-1.686
						s0.755-1.686,1.686-1.686h6.749c0.931,0,1.686,0.755,1.686,1.686S353.288,141.803,352.356,141.803z"/>
					<path id="XMLID_146_" style="fill:#FFFFFF;" d="M397.558,141.803h-6.748c-0.931,0-1.686-0.755-1.686-1.686
						s0.755-1.686,1.686-1.686h6.748c0.931,0,1.686,0.755,1.686,1.686S398.49,141.803,397.558,141.803z"/>
					<path id="XMLID_144_" style="fill:#FFFFFF;" d="M383.426,141.803h-23.225c-0.931,0-1.686-0.755-1.686-1.686
						s0.755-1.686,1.686-1.686h23.225c0.931,0,1.686,0.755,1.686,1.686S384.357,141.803,383.426,141.803z"/>
				</g>
				<g id="XMLID_149_">
					<circle id="XMLID_155_" style="fill:#FFFFFF;" cx="338.63" cy="145.649" r="1.686"/>
					<path id="XMLID_152_" style="fill:#FFFFFF;" d="M352.356,147.335h-6.749c-0.931,0-1.686-0.755-1.686-1.686
						c0-0.931,0.755-1.686,1.686-1.686h6.749c0.931,0,1.686,0.755,1.686,1.686C354.043,146.58,353.288,147.335,352.356,147.335z"/>
					<path id="XMLID_151_" style="fill:#FFFFFF;" d="M397.558,147.335h-6.748c-0.931,0-1.686-0.755-1.686-1.686
						c0-0.931,0.755-1.686,1.686-1.686h6.748c0.931,0,1.686,0.755,1.686,1.686C399.245,146.58,398.49,147.335,397.558,147.335z"/>
					<path id="XMLID_150_" style="fill:#FFFFFF;" d="M383.426,147.335h-23.225c-0.931,0-1.686-0.755-1.686-1.686
						c0-0.931,0.755-1.686,1.686-1.686h23.225c0.931,0,1.686,0.755,1.686,1.686C385.112,146.58,384.357,147.335,383.426,147.335z"/>
				</g>
				<g id="XMLID_157_">
					<circle id="XMLID_172_" style="fill:#FFFFFF;" cx="338.63" cy="151.181" r="1.686"/>
					<path id="XMLID_171_" style="fill:#FFFFFF;" d="M352.356,152.867h-6.749c-0.931,0-1.686-0.755-1.686-1.686
						c0-0.931,0.755-1.686,1.686-1.686h6.749c0.931,0,1.686,0.755,1.686,1.686C354.043,152.113,353.288,152.867,352.356,152.867z"/>
					<path id="XMLID_168_" style="fill:#FFFFFF;" d="M397.558,152.867h-6.748c-0.931,0-1.686-0.755-1.686-1.686
						c0-0.931,0.755-1.686,1.686-1.686h6.748c0.931,0,1.686,0.755,1.686,1.686C399.245,152.113,398.49,152.867,397.558,152.867z"/>
					<path id="XMLID_167_" style="fill:#FFFFFF;" d="M383.426,152.867h-23.225c-0.931,0-1.686-0.755-1.686-1.686
						c0-0.931,0.755-1.686,1.686-1.686h23.225c0.931,0,1.686,0.755,1.686,1.686C385.112,152.113,384.357,152.867,383.426,152.867z"
						/>
				</g>
				<g id="XMLID_173_">
					<circle id="XMLID_178_" style="fill:#FFFFFF;" cx="338.63" cy="156.713" r="1.686"/>
					<path id="XMLID_177_" style="fill:#FFFFFF;" d="M352.356,158.4h-6.749c-0.931,0-1.686-0.755-1.686-1.686
						c0-0.931,0.755-1.686,1.686-1.686h6.749c0.931,0,1.686,0.755,1.686,1.686C354.043,157.645,353.288,158.4,352.356,158.4z"/>
					<path id="XMLID_176_" style="fill:#FFFFFF;" d="M397.558,158.4h-6.748c-0.931,0-1.686-0.755-1.686-1.686
						c0-0.931,0.755-1.686,1.686-1.686h6.748c0.931,0,1.686,0.755,1.686,1.686C399.245,157.645,398.49,158.4,397.558,158.4z"/>
					<path id="XMLID_175_" style="fill:#FFFFFF;" d="M383.426,158.4h-23.225c-0.931,0-1.686-0.755-1.686-1.686
						c0-0.931,0.755-1.686,1.686-1.686h23.225c0.931,0,1.686,0.755,1.686,1.686C385.112,157.645,384.357,158.4,383.426,158.4z"/>
				</g>
				<g id="XMLID_179_">
					<circle id="XMLID_186_" style="fill:#FFFFFF;" cx="338.63" cy="162.246" r="1.686"/>
					<path id="XMLID_184_" style="fill:#FFFFFF;" d="M352.356,163.932h-6.749c-0.931,0-1.686-0.755-1.686-1.686
						c0-0.931,0.755-1.686,1.686-1.686h6.749c0.931,0,1.686,0.755,1.686,1.686C354.043,163.177,353.288,163.932,352.356,163.932z"/>
					<path id="XMLID_181_" style="fill:#FFFFFF;" d="M397.558,163.932h-6.748c-0.931,0-1.686-0.755-1.686-1.686
						c0-0.931,0.755-1.686,1.686-1.686h6.748c0.931,0,1.686,0.755,1.686,1.686C399.245,163.177,398.49,163.932,397.558,163.932z"/>
					<path id="XMLID_180_" style="fill:#FFFFFF;" d="M383.426,163.932h-23.225c-0.931,0-1.686-0.755-1.686-1.686
						c0-0.931,0.755-1.686,1.686-1.686h23.225c0.931,0,1.686,0.755,1.686,1.686C385.112,163.177,384.357,163.932,383.426,163.932z"
						/>
				</g>
			</g>
		</g>
		<g id="XMLID_79_">
			<path id="XMLID_33_" style="fill:#9CD1F0;" d="M422.688,243.981c-28.763-2.82-46.064-1.603-72.487,0.134
				c-1.824,0.12-3.374-1.327-3.374-3.154v-33.064c0-1.896,1.663-3.365,3.545-3.138c27.992,3.376,47.213,4.782,72.059,0.281
				c1.942-0.352,3.734,1.133,3.734,3.106v32.69C426.165,242.706,424.548,244.164,422.688,243.981z"/>
			<path id="XMLID_78_" style="fill:#A9E2FF;" d="M419.162,239.975c-28.763-2.82-46.064-1.603-72.487,0.134
				c-1.824,0.12-3.374-1.327-3.374-3.154V203.89c0-1.896,1.663-3.365,3.545-3.138c27.992,3.376,47.213,4.782,72.059,0.281
				c1.942-0.352,3.734,1.133,3.734,3.106v32.69C422.639,238.699,421.022,240.158,419.162,239.975z"/>
			<g id="XMLID_219_">
				<g id="XMLID_203_">
					<path id="XMLID_190_" style="fill:#FFFFFF;" d="M361.328,214.685h-9.389c-0.848,0-1.535-0.687-1.535-1.535
						c0-0.848,0.687-1.535,1.535-1.535h9.389c0.848,0,1.535,0.687,1.535,1.535C362.862,213.998,362.175,214.685,361.328,214.685z"/>
					<path id="XMLID_192_" style="fill:#FFFFFF;" d="M378.885,214.685h-9.389c-0.848,0-1.535-0.687-1.535-1.535
						c0-0.848,0.687-1.535,1.535-1.535h9.389c0.848,0,1.535,0.687,1.535,1.535C380.42,213.998,379.733,214.685,378.885,214.685z"/>
					<path id="XMLID_197_" style="fill:#FFFFFF;" d="M396.443,214.685h-9.389c-0.848,0-1.535-0.687-1.535-1.535
						c0-0.848,0.687-1.535,1.535-1.535h9.389c0.848,0,1.535,0.687,1.535,1.535C397.978,213.998,397.291,214.685,396.443,214.685z"/>
					<path id="XMLID_201_" style="fill:#FFFFFF;" d="M414.001,214.685h-9.389c-0.848,0-1.535-0.687-1.535-1.535
						c0-0.848,0.687-1.535,1.535-1.535h9.389c0.848,0,1.535,0.687,1.535,1.535C415.536,213.998,414.849,214.685,414.001,214.685z"/>
				</g>
				<g id="XMLID_209_">
					<path id="XMLID_213_" style="fill:#FFFFFF;" d="M361.328,221.957h-9.389c-0.848,0-1.535-0.687-1.535-1.535
						c0-0.848,0.687-1.535,1.535-1.535h9.389c0.848,0,1.535,0.687,1.535,1.535C362.862,221.27,362.175,221.957,361.328,221.957z"/>
					<path id="XMLID_212_" style="fill:#FFFFFF;" d="M378.885,221.957h-9.389c-0.848,0-1.535-0.687-1.535-1.535
						c0-0.848,0.687-1.535,1.535-1.535h9.389c0.848,0,1.535,0.687,1.535,1.535C380.42,221.27,379.733,221.957,378.885,221.957z"/>
					<path id="XMLID_211_" style="fill:#FFFFFF;" d="M396.443,221.957h-9.389c-0.848,0-1.535-0.687-1.535-1.535
						c0-0.848,0.687-1.535,1.535-1.535h9.389c0.848,0,1.535,0.687,1.535,1.535C397.978,221.27,397.291,221.957,396.443,221.957z"/>
					<path id="XMLID_210_" style="fill:#FFFFFF;" d="M414.001,221.957h-9.389c-0.848,0-1.535-0.687-1.535-1.535
						c0-0.848,0.687-1.535,1.535-1.535h9.389c0.848,0,1.535,0.687,1.535,1.535C415.536,221.27,414.849,221.957,414.001,221.957z"/>
				</g>
				<g id="XMLID_214_">
					<path id="XMLID_218_" style="fill:#FFFFFF;" d="M361.328,229.23h-9.389c-0.848,0-1.535-0.687-1.535-1.535
						c0-0.848,0.687-1.535,1.535-1.535h9.389c0.848,0,1.535,0.687,1.535,1.535C362.862,228.542,362.175,229.23,361.328,229.23z"/>
					<path id="XMLID_217_" style="fill:#FFFFFF;" d="M378.885,229.23h-9.389c-0.848,0-1.535-0.687-1.535-1.535
						c0-0.848,0.687-1.535,1.535-1.535h9.389c0.848,0,1.535,0.687,1.535,1.535C380.42,228.542,379.733,229.23,378.885,229.23z"/>
					<path id="XMLID_216_" style="fill:#FFFFFF;" d="M396.443,229.23h-9.389c-0.848,0-1.535-0.687-1.535-1.535
						c0-0.848,0.687-1.535,1.535-1.535h9.389c0.848,0,1.535,0.687,1.535,1.535C397.978,228.542,397.291,229.23,396.443,229.23z"/>
					<path id="XMLID_215_" style="fill:#FFFFFF;" d="M414.001,229.23h-9.389c-0.848,0-1.535-0.687-1.535-1.535
						c0-0.848,0.687-1.535,1.535-1.535h9.389c0.848,0,1.535,0.687,1.535,1.535C415.536,228.542,414.849,229.23,414.001,229.23z"/>
				</g>
			</g>
		</g>
		<g id="XMLID_96_">
			<path id="XMLID_95_" style="fill:#A9E2FF;" d="M170.823,224.9c-32.036,15.606-46.064-1.603-72.487,0.134
				c-1.824,0.12-3.374-1.327-3.374-3.155v-33.064c0-1.896,1.663-3.365,3.545-3.138c27.992,3.376,45.118,14.749,72.059,0.281
				c1.739-0.934,3.734,1.133,3.734,3.106v32.69C174.301,223.624,172.504,224.081,170.823,224.9z"/>
			<path id="XMLID_56_" style="fill:#9CD1F0;" d="M174.013,229.635c-32.036,15.606-46.064-1.603-72.487,0.134
				c-1.824,0.12-3.374-1.327-3.374-3.155v-33.064c0-1.896,1.663-3.365,3.545-3.138c27.992,3.376,45.119,14.749,72.059,0.281
				c1.739-0.934,3.734,1.133,3.734,3.106v32.69C177.49,228.36,175.694,228.816,174.013,229.635z"/>
			<g id="XMLID_284_">
				<g id="XMLID_275_">
					<path id="XMLID_272_" style="fill:#FFFFFF;" d="M121.516,208.673h-16.605c-0.977,0-1.769-0.792-1.769-1.769
						c0-0.977,0.792-1.769,1.769-1.769h16.605c0.977,0,1.769,0.792,1.769,1.769C123.285,207.881,122.493,208.673,121.516,208.673z"
						/>
					<path id="XMLID_273_" style="fill:#FFFFFF;" d="M158.901,208.673h-30.04c-0.977,0-1.769-0.792-1.769-1.769
						c0-0.977,0.792-1.769,1.769-1.769h30.04c0.977,0,1.769,0.792,1.769,1.769C160.67,207.881,159.878,208.673,158.901,208.673z"/>
					<path id="XMLID_274_" style="fill:#FFFFFF;" d="M170.731,208.673h-4.974c-0.977,0-1.769-0.792-1.769-1.769
						c0-0.977,0.792-1.769,1.769-1.769h4.974c0.977,0,1.769,0.792,1.769,1.769C172.5,207.881,171.708,208.673,170.731,208.673z"/>
				</g>
				<g id="XMLID_276_">
					<path id="XMLID_279_" style="fill:#FFFFFF;" d="M154.126,215.08h16.605c0.977,0,1.769-0.792,1.769-1.769
						c0-0.977-0.792-1.769-1.769-1.769h-16.605c-0.977,0-1.769,0.792-1.769,1.769C152.357,214.288,153.149,215.08,154.126,215.08z"
						/>
					<path id="XMLID_278_" style="fill:#FFFFFF;" d="M116.741,215.08h30.04c0.977,0,1.769-0.792,1.769-1.769
						c0-0.977-0.792-1.769-1.769-1.769h-30.04c-0.977,0-1.769,0.792-1.769,1.769C114.971,214.288,115.764,215.08,116.741,215.08z"/>
					<path id="XMLID_277_" style="fill:#FFFFFF;" d="M104.911,215.08h4.974c0.977,0,1.769-0.792,1.769-1.769
						c0-0.977-0.792-1.769-1.769-1.769h-4.974c-0.977,0-1.769,0.792-1.769,1.769C103.142,214.288,103.934,215.08,104.911,215.08z"/>
				</g>
				<g id="XMLID_280_">
					<path id="XMLID_283_" style="fill:#FFFFFF;" d="M121.516,221.487h-16.605c-0.977,0-1.769-0.792-1.769-1.769
						c0-0.977,0.792-1.769,1.769-1.769h16.605c0.977,0,1.769,0.792,1.769,1.769C123.285,220.695,122.493,221.487,121.516,221.487z"
						/>
					<path id="XMLID_282_" style="fill:#FFFFFF;" d="M158.901,221.487h-30.04c-0.977,0-1.769-0.792-1.769-1.769
						c0-0.977,0.792-1.769,1.769-1.769h30.04c0.977,0,1.769,0.792,1.769,1.769C160.67,220.695,159.878,221.487,158.901,221.487z"/>
					<path id="XMLID_281_" style="fill:#FFFFFF;" d="M170.731,221.487h-4.974c-0.977,0-1.769-0.792-1.769-1.769
						c0-0.977,0.792-1.769,1.769-1.769h4.974c0.977,0,1.769,0.792,1.769,1.769C172.5,220.695,171.708,221.487,170.731,221.487z"/>
				</g>
			</g>
		</g>
		<g id="XMLID_81_">
			<path id="XMLID_80_" style="fill:#F2F2F2;" d="M375.51,273.692c-12.755,0.605-26.369-11.22-43.802,0.304
				c-1.821,1.204-4.047-1.448-3.7-3.603c1.852-11.519,0.413-21.513-0.639-36.903c-0.133-1.95,1.519-3.557,3.464-3.368
				c17.111,1.666,27.356,7.665,44.93,0.427c1.826-0.752,3.733,1.132,3.733,3.106v36.99
				C379.497,272.727,377.589,273.593,375.51,273.692z"/>
			<path id="XMLID_34_" style="fill:#FFFFFF;" d="M377.346,275.606c-12.755,0.605-26.369-11.22-43.802,0.304
				c-1.821,1.204-4.047-1.447-3.7-3.603c1.852-11.519,0.413-21.513-0.639-36.904c-0.133-1.949,1.519-3.557,3.464-3.368
				c17.111,1.666,27.356,7.665,44.93,0.427c1.826-0.752,3.733,1.132,3.733,3.106v36.99
				C381.333,274.641,379.426,275.508,377.346,275.606z"/>
			<g id="XMLID_882_">
				<g>
					<path style="fill:#444244;" d="M335.167,247.75c0.599-0.1,1.383-0.186,2.382-0.186c1.226,0,2.125,0.285,2.695,0.799
						c0.528,0.457,0.841,1.155,0.841,2.011c0,0.87-0.257,1.555-0.741,2.054c-0.656,0.699-1.726,1.055-2.938,1.055
						c-0.371,0-0.713-0.014-0.998-0.086v3.85h-1.241V247.75z M336.408,252.385c0.271,0.071,0.613,0.1,1.027,0.1
						c1.497,0,2.41-0.727,2.41-2.053c0-1.269-0.898-1.883-2.267-1.883c-0.542,0-0.955,0.043-1.169,0.1V252.385z"/>
					<path style="fill:#444244;" d="M343.226,250.345l1.512,4.079c0.157,0.456,0.328,0.998,0.442,1.411h0.029
						c0.128-0.413,0.271-0.941,0.442-1.44l1.369-4.05h1.326l-1.883,4.92c-0.898,2.367-1.512,3.579-2.367,4.321
						c-0.613,0.542-1.226,0.755-1.54,0.813l-0.314-1.055c0.314-0.1,0.727-0.299,1.098-0.613c0.342-0.271,0.77-0.756,1.055-1.398
						c0.057-0.128,0.1-0.228,0.1-0.299c0-0.071-0.029-0.171-0.086-0.328l-2.553-6.36H343.226z"/>
					<path style="fill:#444244;" d="M351,248.363v1.982h1.797v0.955H351v3.722c0,0.855,0.242,1.34,0.941,1.34
						c0.328,0,0.57-0.043,0.727-0.086l0.057,0.941c-0.242,0.1-0.627,0.171-1.112,0.171c-0.585,0-1.055-0.185-1.355-0.527
						c-0.357-0.371-0.485-0.984-0.485-1.797v-3.765h-1.069v-0.955h1.069v-1.654L351,248.363z"/>
					<path style="fill:#444244;" d="M354.209,247.122h1.255v4.307h0.029c0.2-0.357,0.513-0.67,0.898-0.884
						c0.371-0.214,0.813-0.357,1.284-0.357c0.927,0,2.41,0.571,2.41,2.952v4.107h-1.255v-3.964c0-1.113-0.414-2.054-1.597-2.054
						c-0.813,0-1.455,0.57-1.683,1.255c-0.071,0.171-0.086,0.356-0.086,0.599v4.164h-1.255V247.122z"/>
					<path style="fill:#444244;" d="M368.371,253.739c0,2.553-1.768,3.665-3.437,3.665c-1.868,0-3.308-1.369-3.308-3.551
						c0-2.31,1.512-3.665,3.423-3.665C367.031,250.188,368.371,251.629,368.371,253.739z M362.895,253.811
						c0,1.512,0.87,2.653,2.096,2.653c1.198,0,2.096-1.127,2.096-2.681c0-1.169-0.585-2.653-2.068-2.653
						C363.537,251.13,362.895,252.499,362.895,253.811z"/>
					<path style="fill:#444244;" d="M369.956,252.213c0-0.713-0.014-1.298-0.057-1.868h1.112l0.071,1.141h0.029
						c0.342-0.656,1.141-1.298,2.282-1.298c0.955,0,2.439,0.571,2.439,2.938v4.121h-1.255v-3.979c0-1.113-0.414-2.04-1.597-2.04
						c-0.827,0-1.469,0.585-1.683,1.284c-0.057,0.157-0.086,0.371-0.086,0.584v4.15h-1.255V252.213z"/>
				</g>
			</g>
		</g>
		<g id="XMLID_93_">
			<path id="XMLID_92_" style="fill:#EDF2F2;" d="M188.266,216.65c-12.755,0.605-26.369-11.22-43.802,0.304
				c-1.821,1.204-4.047-1.447-3.7-3.603c1.853-11.519,0.413-21.513-0.638-36.904c-0.133-1.95,1.519-3.557,3.464-3.368
				c17.111,1.666,27.356,7.666,44.93,0.427c1.826-0.752,3.733,1.132,3.733,3.106v36.99
				C192.253,215.684,190.346,216.551,188.266,216.65z"/>
			<path id="XMLID_54_" style="fill:#FFFFFF;" d="M185.969,219.818c-12.755,0.605-26.369-11.22-43.802,0.304
				c-1.821,1.204-4.047-1.447-3.7-3.603c1.852-11.519,0.413-21.513-0.639-36.904c-0.133-1.95,1.519-3.557,3.464-3.368
				c17.111,1.666,27.356,7.665,44.931,0.427c1.825-0.752,3.733,1.132,3.733,3.106v36.99
				C189.956,218.853,188.049,219.719,185.969,219.818z"/>
			<g id="XMLID_908_">
				<g>
					<path style="fill:#444244;" d="M150.044,192.293c0.669-0.112,1.545-0.207,2.66-0.207c1.37,0,2.374,0.318,3.011,0.892
						c0.589,0.51,0.94,1.29,0.94,2.246c0,0.972-0.287,1.736-0.828,2.294c-0.733,0.781-1.928,1.179-3.282,1.179
						c-0.414,0-0.796-0.016-1.115-0.096v4.302h-1.386V192.293z M151.43,197.471c0.303,0.08,0.685,0.112,1.147,0.112
						c1.673,0,2.692-0.812,2.692-2.294c0-1.418-1.003-2.103-2.533-2.103c-0.605,0-1.067,0.048-1.306,0.111V197.471z"/>
					<path style="fill:#444244;" d="M159.905,192.166v4.492h5.194v-4.492h1.402v10.738h-1.402v-5.034h-5.194v5.034h-1.386v-10.738
						H159.905z"/>
					<path style="fill:#444244;" d="M168.907,192.293c0.669-0.112,1.545-0.207,2.66-0.207c1.37,0,2.374,0.318,3.011,0.892
						c0.59,0.51,0.94,1.29,0.94,2.246c0,0.972-0.287,1.736-0.828,2.294c-0.733,0.781-1.928,1.179-3.282,1.179
						c-0.414,0-0.797-0.016-1.115-0.096v4.302h-1.386V192.293z M170.293,197.471c0.303,0.08,0.685,0.112,1.147,0.112
						c1.673,0,2.692-0.812,2.692-2.294c0-1.418-1.004-2.103-2.533-2.103c-0.605,0-1.067,0.048-1.306,0.111V197.471z"/>
				</g>
			</g>
		</g>
		<g id="XMLID_87_">
			
				<ellipse id="XMLID_41_" transform="matrix(0.2298 -0.9732 0.9732 0.2298 -9.4026 495.1535)" style="fill:#ECF9FF;" cx="308.125" cy="253.517" rx="12.75" ry="12.75"/>
			<g id="XMLID_86_">
				<path style="fill:#ECF9FF;" d="M308.125,270.492c-9.36,0-16.975-7.615-16.975-16.975c0-9.36,7.615-16.975,16.975-16.975
					c9.36,0,16.975,7.615,16.975,16.975C325.1,262.877,317.485,270.492,308.125,270.492z M308.125,236.947
					c-9.137,0-16.57,7.433-16.57,16.57s7.433,16.57,16.57,16.57c9.137,0,16.57-7.433,16.57-16.57S317.262,236.947,308.125,236.947z"
					/>
			</g>
		</g>
		<g id="XMLID_85_">
			<ellipse id="XMLID_42_" style="fill:#ECF9FF;" cx="386.496" cy="273.203" rx="26.47" ry="12.827"/>
			<g id="XMLID_84_">
				<path style="fill:#ECF9FF;" d="M386.496,287.386c-16.021,0-29.055-6.363-29.055-14.184c0-7.821,13.034-14.184,29.055-14.184
					c16.021,0,29.055,6.363,29.055,14.184C415.551,281.024,402.517,287.386,386.496,287.386z M386.496,259.424
					c-15.797,0-28.649,6.181-28.649,13.779c0,7.597,12.852,13.778,28.649,13.778s28.65-6.181,28.65-13.778
					C415.145,265.605,402.293,259.424,386.496,259.424z"/>
			</g>
		</g>
		<g id="XMLID_76_">
			<circle id="XMLID_43_" style="fill:#ECF9FF;" cx="292.58" cy="86.918" r="7.151"/>
			<g id="XMLID_75_">
				<path style="fill:#ECF9FF;" d="M292.58,96.307c-5.177,0-9.389-4.212-9.389-9.389c0-5.177,4.212-9.389,9.389-9.389
					c5.177,0,9.389,4.212,9.389,9.389C301.969,92.095,297.757,96.307,292.58,96.307z M292.58,77.934
					c-4.954,0-8.984,4.03-8.984,8.984c0,4.954,4.03,8.984,8.984,8.984c4.954,0,8.984-4.03,8.984-8.984
					C301.564,81.964,297.534,77.934,292.58,77.934z"/>
			</g>
			<g id="XMLID_77_">
				<path style="fill:#ECF9FF;" d="M292.58,97.532c-5.853,0-10.614-4.762-10.614-10.614c0-5.853,4.762-10.614,10.614-10.614
					c5.853,0,10.614,4.762,10.614,10.614C303.194,92.77,298.432,97.532,292.58,97.532z M292.58,76.709
					c-5.629,0-10.209,4.58-10.209,10.209c0,5.629,4.58,10.209,10.209,10.209c5.629,0,10.209-4.58,10.209-10.209
					C302.789,81.288,298.209,76.709,292.58,76.709z"/>
			</g>
		</g>
		<g id="XMLID_286_">
			<circle id="XMLID_291_" style="fill:#ECF9FF;" cx="120.372" cy="252.201" r="7.151"/>
			<g id="XMLID_288_">
				<path style="fill:#ECF9FF;" d="M120.372,261.591c-5.177,0-9.389-4.212-9.389-9.389c0-5.177,4.212-9.389,9.389-9.389
					c5.177,0,9.389,4.212,9.389,9.389C129.761,257.379,125.549,261.591,120.372,261.591z M120.372,243.218
					c-4.954,0-8.984,4.03-8.984,8.984c0,4.954,4.03,8.984,8.984,8.984c4.954,0,8.984-4.03,8.984-8.984
					C129.356,247.248,125.326,243.218,120.372,243.218z"/>
			</g>
			<g id="XMLID_287_">
				<path style="fill:#ECF9FF;" d="M120.372,262.816c-5.853,0-10.614-4.762-10.614-10.614c0-5.853,4.762-10.614,10.614-10.614
					c5.853,0,10.614,4.762,10.614,10.614C130.986,258.054,126.225,262.816,120.372,262.816z M120.372,241.992
					c-5.629,0-10.209,4.58-10.209,10.209c0,5.629,4.58,10.209,10.209,10.209c5.629,0,10.209-4.58,10.209-10.209
					C130.581,246.572,126.001,241.992,120.372,241.992z"/>
			</g>
		</g>
		<g id="XMLID_53_">
			<path id="XMLID_99_" style="fill:#ECF9FF;" d="M181.244,135.563h-46.973c-1.746,0-3.162-1.415-3.162-3.162V117.06
				c0-1.746,1.415-3.162,3.162-3.162h46.973c1.746,0,3.162,1.416,3.162,3.162v15.341
				C184.405,134.148,182.99,135.563,181.244,135.563z"/>
			<path id="XMLID_52_" style="fill:#D3E7F1;" d="M180.224,137.313h-46.973c-1.746,0-3.162-1.415-3.162-3.162V118.81
				c0-1.746,1.416-3.162,3.162-3.162h46.973c1.746,0,3.162,1.415,3.162,3.162v15.341
				C183.386,135.897,181.97,137.313,180.224,137.313z"/>
			<g id="XMLID_50_">
				<circle id="XMLID_47_" style="fill:#ECF9FF;" cx="140.536" cy="126.48" r="7.151"/>
				<circle id="XMLID_48_" style="fill:#ECF9FF;" cx="156.738" cy="126.48" r="7.151"/>
				<circle id="XMLID_49_" style="fill:#ECF9FF;" cx="172.94" cy="126.48" r="7.151"/>
			</g>
		</g>
	</g>
	<g id="XMLID_1641_">
		<path id="XMLID_1628_" style="opacity:0.5;fill:#E0DFEA;" d="M211.458,319.713c-92.275,0-93.007-19.483,0-19.483
			C303.733,300.23,304.466,319.713,211.458,319.713z"/>
		<g id="XMLID_1627_">
			<path style="fill:#514342;" d="M213.848,272.162c19.419,6.11,10.563,30.796-7.894,28.639
				c-10.301-1.204-60.496-18.953-65.892-26.468c-1.854-2.582-2.18-6.274-0.519-8.984c2.492-4.065,6.567-3.28,10.459-2.682
				C150.585,262.756,198.185,267.234,213.848,272.162z"/>
			<path style="fill:#463C3A;" d="M208.205,301.137c-0.739,0-1.497-0.043-2.274-0.134c-10.654-1.245-60.695-19.116-66.033-26.551
				c-1.96-2.73-2.177-6.518-0.527-9.209c2.479-4.045,6.442-3.43,10.274-2.836l0.389,0.06c0.047,0.007,0.489,0.051,1.158,0.119
				c18.075,1.821,50.258,5.463,62.717,9.383c9.845,3.098,11.944,10.719,10.75,16.304
				C223.267,294.788,217.125,301.137,208.205,301.137z M145.564,262.386c-2.274,0-4.361,0.644-5.847,3.069
				c-1.567,2.556-1.357,6.158,0.511,8.76c5.3,7.383,55.134,25.144,65.75,26.385c9.905,1.159,16.814-5.531,18.285-12.412
				c1.214-5.678-0.901-12.819-10.475-15.832c-12.425-3.909-44.577-7.546-62.637-9.366c-0.799-0.081-1.125-0.114-1.179-0.122
				l-0.389-0.06C148.234,262.598,146.868,262.386,145.564,262.386z"/>
		</g>
		<g id="XMLID_1626_">
			<path style="fill:#514342;" d="M209.231,271.017c-19.419,6.11-10.563,30.796,7.894,28.639
				c10.301-1.204,60.496-18.953,65.892-26.468c1.854-2.582,2.181-6.274,0.519-8.984c-2.492-4.065-6.567-3.28-10.459-2.682
				C272.495,261.612,224.895,266.089,209.231,271.017z"/>
			<path style="fill:#463C3A;" d="M214.875,299.992c-8.921,0-15.062-6.348-16.455-12.864c-1.194-5.585,0.905-13.206,10.75-16.304
				c12.459-3.92,44.643-7.562,62.718-9.383c0.669-0.068,1.112-0.112,1.158-0.119l0.388-0.06c3.832-0.594,7.794-1.208,10.274,2.836
				c1.65,2.691,1.433,6.478-0.527,9.209c-5.338,7.435-55.379,25.306-66.033,26.551C216.373,299.948,215.613,299.992,214.875,299.992
				z M209.231,271.017l0.061,0.193c-9.575,3.013-11.689,10.154-10.475,15.832c1.471,6.881,8.382,13.573,18.285,12.412
				c10.617-1.24,60.45-19.002,65.75-26.385c1.868-2.602,2.078-6.204,0.511-8.76c-2.338-3.815-6.165-3.221-9.866-2.648l-0.389,0.06
				c-0.054,0.008-0.38,0.041-1.179,0.122c-18.06,1.82-50.212,5.457-62.637,9.366L209.231,271.017z"/>
		</g>
		<g id="XMLID_1625_">
			<path style="fill:#514342;" d="M240.699,294.66c-23.211,5.983-36.793,6.067-59.338,0c1.72-18.524,1.604-30.238,6.271-47.434
				l46.204,2.081C239.321,266.81,239.387,277.431,240.699,294.66z"/>
			<path style="fill:#463C3A;" d="M210.659,299.409c-9.098,0-18.069-1.518-29.351-4.553l-0.165-0.044l0.016-0.17
				c0.399-4.291,0.696-8.175,0.983-11.931c0.952-12.463,1.705-22.308,5.295-35.537l0.043-0.157l0.162,0.007l46.346,2.087
				l0.042,0.135c4.74,15.126,5.43,24.993,6.385,38.65c0.15,2.148,0.307,4.386,0.487,6.748l0.013,0.169l-0.164,0.042
				C228.977,297.891,219.755,299.409,210.659,299.409z M181.579,294.509c22.328,5.991,35.595,5.99,58.905-0.003
				c-0.175-2.3-0.327-4.483-0.474-6.581c-0.95-13.589-1.637-23.418-6.325-38.422l-45.9-2.067
				c-3.544,13.113-4.293,22.912-5.24,35.305C182.263,286.449,181.97,290.281,181.579,294.509z"/>
		</g>
		<g id="XMLID_1618_">
			<g id="XMLID_1624_">
				<path style="fill:#323D4E;" d="M213.876,280.563c-0.097,0-0.182-0.069-0.2-0.168c-1.911-10.997-4.077-23.461-1.39-35.165
					c0.025-0.109,0.134-0.177,0.243-0.152c0.109,0.025,0.177,0.134,0.152,0.243c-2.669,11.624-0.51,24.045,1.394,35.004
					c0.019,0.111-0.055,0.215-0.165,0.234C213.899,280.562,213.888,280.563,213.876,280.563z"/>
			</g>
			<g id="XMLID_1623_">
				<path style="fill:#323D4E;" d="M212.149,269.793c-0.046,0-0.093-0.016-0.131-0.048c-6.763-5.723-6.574-7.617-4.765-25.732
					c0.011-0.111,0.111-0.194,0.222-0.181c0.111,0.011,0.193,0.11,0.182,0.222c-1.789,17.923-1.976,19.796,4.624,25.382
					c0.085,0.072,0.096,0.2,0.024,0.286C212.264,269.769,212.206,269.793,212.149,269.793z"/>
			</g>
			<g id="XMLID_1622_">
				<path style="fill:#323D4E;" d="M184.507,261.996c-0.085,0-0.164-0.053-0.192-0.138c-0.035-0.106,0.022-0.221,0.128-0.257
					c6.625-2.215,8.004-2.676,11.246-16.407c0.026-0.109,0.135-0.178,0.244-0.15c0.109,0.026,0.177,0.135,0.151,0.244
					c-3.294,13.951-4.71,14.424-11.512,16.698C184.55,261.993,184.528,261.996,184.507,261.996z"/>
			</g>
			<g id="XMLID_1621_">
				<path style="fill:#323D4E;" d="M184.507,261.996c-0.085,0-0.164-0.053-0.192-0.138c-0.035-0.106,0.022-0.221,0.128-0.257
					c6.625-2.215,8.004-2.676,11.246-16.407c0.026-0.109,0.135-0.178,0.244-0.15c0.109,0.026,0.177,0.135,0.151,0.244
					c-3.294,13.951-4.71,14.424-11.512,16.698C184.55,261.993,184.528,261.996,184.507,261.996z"/>
			</g>
			<g id="XMLID_1620_">
				<path style="fill:#323D4E;" d="M237.211,262.383c-0.021,0-0.043-0.003-0.064-0.01l-0.26-0.087
					c-6.574-2.196-7.942-2.652-11.185-16.385c-0.026-0.109,0.042-0.218,0.151-0.244c0.108-0.027,0.218,0.041,0.244,0.15
					c3.19,13.513,4.37,13.907,10.918,16.094l0.261,0.087c0.106,0.036,0.163,0.15,0.128,0.257
					C237.375,262.33,237.296,262.383,237.211,262.383z"/>
			</g>
		</g>
		<g id="XMLID_1606_">
			<g id="XMLID_1608_">
				<path style="fill:#FFFFF6;" d="M221.13,298.107c-0.854,3.604-0.697,7.441,0.447,10.964c-13.957,0.809-45.734,7.605-46.59,2.137
					c-0.177-1.133-0.357-0.676,23.689-13.241c4.083-2.133,6.352-1.011,6.943,3.135C205.837,302.637,219.664,298.607,221.13,298.107z
					"/>
				<path style="fill:#EDE3D7;" d="M182.077,313.517c-4.234,0-7.03-0.61-7.291-2.278c-0.161-1.016-0.161-1.016,10.801-6.695
					c3.256-1.687,7.491-3.88,12.995-6.757c2.139-1.117,3.843-1.366,5.066-0.74c1.144,0.587,1.874,1.941,2.171,4.026
					c0.001,0.006,0.004,0.025,0.05,0.054c1.322,0.812,13.136-2.51,15.195-3.213l0.347-0.118l-0.085,0.357
					c-0.85,3.591-0.697,7.344,0.442,10.854l0.081,0.25l-0.262,0.015c-4.271,0.247-10.183,1.052-16.442,1.905
					C196.642,312.336,187.967,313.517,182.077,313.517z M202.145,297.115c-0.931,0-2.06,0.345-3.375,1.032
					c-5.504,2.876-9.74,5.07-12.996,6.757c-10.503,5.441-10.701,5.557-10.592,6.24c0.568,3.628,16.158,1.505,29.911-0.368
					c6.141-0.836,11.948-1.627,16.213-1.892c-1.055-3.395-1.21-7.003-0.451-10.475c-2.307,0.717-13.67,3.999-15.196,3.065
					c-0.173-0.106-0.226-0.245-0.24-0.342c-0.277-1.947-0.935-3.199-1.955-3.722C203.081,297.213,202.641,297.115,202.145,297.115z"
					/>
			</g>
			<g id="XMLID_1607_">
				<path style="fill:#EDE3D7;" d="M185.099,311.485c-0.111,0-0.202-0.09-0.203-0.202c-0.001-0.112,0.09-0.203,0.202-0.204
					c6.143-0.03,12.301-0.703,18.304-2c0.11-0.024,0.217,0.046,0.241,0.155c0.023,0.109-0.046,0.217-0.156,0.241
					c-6.03,1.303-12.217,1.98-18.387,2.01C185.1,311.485,185.1,311.485,185.099,311.485z"/>
			</g>
		</g>
		<g id="XMLID_1605_">
			<path style="fill:#514342;" d="M284.595,290.249c19.511-8.891,7.07-33.553-11.944-28.919
				c-10.612,2.586-60.795,27.612-65.465,36.164c-1.605,2.939-1.47,6.84,0.616,9.459c3.129,3.928,7.288,2.582,11.279,1.455
				C219.677,308.239,268.858,297.421,284.595,290.249z"/>
			<path style="fill:#463C3A;" d="M213.166,309.783c-1.998,0-3.891-0.656-5.523-2.704c-2.069-2.598-2.33-6.579-0.635-9.682
				c4.62-8.459,54.62-33.589,65.595-36.264c10.444-2.547,18.721,3.708,21.206,10.885c1.967,5.68,0.756,13.911-9.129,18.416
				c-12.509,5.7-45.676,13.657-64.333,17.892c-0.7,0.159-1.163,0.264-1.211,0.278l-0.399,0.113
				C216.871,309.245,214.975,309.783,213.166,309.783z M277.3,260.96c-1.474,0-3.011,0.179-4.601,0.567
				c-10.939,2.666-60.746,27.662-65.335,36.064c-1.619,2.964-1.374,6.762,0.596,9.235c2.941,3.692,6.868,2.577,10.665,1.499
				l0.4-0.113c0.055-0.016,0.396-0.093,1.232-0.283c18.642-4.232,51.778-12.18,64.254-17.865l0.084,0.184l-0.084-0.184
				c9.627-4.387,10.917-12.13,8.915-17.914C291.377,266.234,285.291,260.96,277.3,260.96z"/>
		</g>
		<g id="XMLID_1602_">
			<g id="XMLID_1604_">
				<path style="fill:#FFFFF6;" d="M203.434,297.51c0.869,3.6,0.729,7.438-0.4,10.965c13.961,0.75,45.766,7.412,46.599,1.941
					c0.173-1.133,0.354-0.678-23.745-13.141c-4.092-2.116-6.356-0.984-6.929,3.164C218.746,301.975,204.902,298.003,203.434,297.51z
					"/>
				<path style="fill:#EDE3D7;" d="M242.315,312.749c-5.885,0-14.445-1.129-22.841-2.236c-6.263-0.826-12.179-1.606-16.452-1.836
					l-0.262-0.014l0.08-0.25c1.125-3.515,1.262-7.269,0.396-10.856l-0.086-0.357l0.348,0.117c2.063,0.693,13.894,3.962,15.209,3.148
					c0.046-0.029,0.049-0.048,0.05-0.054c0.288-2.086,1.013-3.444,2.154-4.035c1.221-0.633,2.926-0.391,5.069,0.718
					c5.516,2.853,9.76,5.029,13.023,6.702c10.987,5.633,10.987,5.633,10.834,6.618C249.577,312.128,246.682,312.749,242.315,312.749
					z M203.305,308.287c4.266,0.247,10.077,1.014,16.223,1.824c13.76,1.814,29.357,3.871,29.905,0.274
					c0.11-0.716-0.088-0.832-10.614-6.228c-3.263-1.673-7.508-3.849-13.024-6.702c-2.02-1.045-3.6-1.286-4.696-0.718
					c-1.018,0.527-1.67,1.782-1.939,3.73c-0.013,0.098-0.066,0.236-0.238,0.343c-1.521,0.941-12.899-2.294-15.209-3.001
					C204.485,301.279,204.345,304.888,203.305,308.287z"/>
			</g>
			<g id="XMLID_1603_">
				<path style="fill:#EDE3D7;" d="M239.52,310.735c-6.17-0.004-12.359-0.654-18.396-1.932c-0.109-0.023-0.18-0.131-0.156-0.24
					c0.023-0.11,0.13-0.178,0.24-0.156c6.009,1.272,12.171,1.919,18.312,1.924c0.112,0,0.202,0.091,0.202,0.203
					C239.723,310.644,239.632,310.735,239.52,310.735z"/>
			</g>
		</g>
		<g id="XMLID_1601_">
			<path style="fill:#514342;" d="M139.971,291.588c-19.542-8.823-7.188-33.528,11.843-28.96
				c10.621,2.549,60.891,27.399,65.591,35.935c1.615,2.933,1.494,6.835-0.583,9.461c-3.115,3.939-7.279,2.607-11.273,1.494
				C204.952,309.351,155.734,298.704,139.971,291.588z"/>
			<path style="fill:#463C3A;" d="M211.437,310.872c-1.8,0-3.686-0.528-5.543-1.048l-0.399-0.112
				c-0.048-0.013-0.508-0.116-1.204-0.271c-18.673-4.17-51.87-12.01-64.403-17.668c-9.901-4.47-11.141-12.696-9.194-18.383
				c2.46-7.185,10.715-13.467,21.167-10.959c10.984,2.636,61.072,27.591,65.722,36.034c1.706,3.097,1.459,7.08-0.601,9.684
				C215.349,310.213,213.447,310.872,211.437,310.872z M147.228,262.274c-8.023,0-14.117,5.307-16.15,11.247
				c-1.982,5.79-0.665,13.529,8.977,17.882c12.501,5.644,45.667,13.476,64.325,17.642c0.83,0.186,1.169,0.261,1.224,0.277l0.4,0.112
				c3.801,1.064,7.732,2.165,10.66-1.537c1.961-2.48,2.193-6.278,0.564-9.237c-4.618-8.386-54.513-33.208-65.461-35.835
				C150.199,262.448,148.682,262.274,147.228,262.274z"/>
		</g>
		<g id="XMLID_1553_">
			<path id="XMLID_1600_" style="fill:#F9A587;" d="M202.811,177.861c0.084,6.9,2.37,12.017-10.321,17.989
				c7.554,10.393,14.994,14.233,14.994,14.233s15.916-7.165,21.385-11.905c-2.846-2.071-5.816-3.618-8.441-5.462
				c-5.185-3.643-2.126-11.738-3.138-14.727L202.811,177.861z"/>
			<path id="XMLID_1599_" style="fill:#EA795C;" d="M218.74,191.008c-1.397-2.051-1.484-4.41-1.398-7.679
				c-6.663,4.71-9.866,2.547-14.069-0.541C209.302,191.493,212.851,188.288,218.74,191.008z"/>
			<path id="XMLID_1594_" style="fill:#F9A587;" d="M215.315,185.275c3.632-1.159,9.529-11.711,7.315-24.71
				c-2.233-13.105-16.81-14.673-22.594-5.832C194.469,163.241,198.07,190.776,215.315,185.275z"/>
			<path id="XMLID_1540_" style="fill:#30323E;" d="M205.181,158.566c2.394-0.484,5.229-3.712,7.755-2.106
				c4.436,2.821,9.124,4.93,9.347,17.19c2.647-10.433,2.038-8.018,4.243-9.936c3.473-3.021-1.467-8.4-2.285-11.055
				c-0.792-2.566-0.075-5.958-5.586-7.77c-1.747-0.574-2.157-0.197-3.378,0.144c-6.404,1.792-13.394-7.295-18.25,2.815
				c-1.07,2.227-0.54,2.441-0.186,4.076c0.78,3.605-2.706,6.757-3.167,10.416c-0.197,1.566,4.898,11.015,4.898,11.015
				s-0.027-4.314,0.094-5.201C200.133,157.366,203.12,158.983,205.181,158.566z"/>
			<g id="XMLID_1584_">
				<g id="XMLID_1591_">
					<path id="XMLID_1592_" style="fill:#F9A587;" d="M224.365,166.343c-2.527-0.63-2.467,4.604-2.366,7.199
						C222.198,178.657,228.345,167.336,224.365,166.343z"/>
				</g>
				<g id="XMLID_1587_">
					<path id="XMLID_1588_" style="fill:#F9A587;" d="M196.494,167.426c2.466-0.837,2.84,4.383,2.954,6.978
						C199.672,179.519,192.61,168.745,196.494,167.426z"/>
				</g>
			</g>
			<g id="XMLID_1574_">
				<path id="XMLID_1582_" style="fill:#30323E;" d="M213.3,164.297c0.19,0.098,6.496,0.565,6.596,0.532
					c1.525-0.505-3.862-2.659-6.513-1.5C213.046,163.476,212.955,164.118,213.3,164.297z"/>
				<path id="XMLID_1577_" style="fill:#30323E;" d="M207.209,163.137c-2.692-1.059-7.711,1.37-6.435,1.805
					C202.46,164.943,209.596,164.077,207.209,163.137z"/>
				<g id="XMLID_1576_">
					<path style="fill:#EA795C;" d="M210.422,174.846c-0.169,0-0.363-0.031-0.596-0.115c-0.854-0.309-0.604-1.503-0.288-3.014
						c0.206-0.984,0.439-2.099,0.39-3.111c-0.005-0.112,0.081-0.207,0.193-0.212c0.104-0.011,0.206,0.081,0.212,0.193
						c0.051,1.064-0.188,2.206-0.398,3.213c-0.265,1.267-0.493,2.361,0.03,2.55c0.443,0.16,0.663,0.083,0.969-0.023
						c0.219-0.076,0.467-0.162,0.819-0.162c0.112,0,0.203,0.091,0.203,0.203c0,0.112-0.091,0.203-0.203,0.203
						c-0.283,0-0.479,0.068-0.686,0.14C210.872,174.777,210.673,174.846,210.422,174.846z"/>
				</g>
				<path id="XMLID_293_" style="fill:#FFFFFF;" d="M213.109,178.215c0.165-0.096,0.447-0.026,0.428,0.164
					c-0.144,1.414-1.084,2.959-1.784,3.381c-2.076,1.25-4.312-3.044-2.804-3.029C209.727,178.74,211.547,179.12,213.109,178.215z"/>
			</g>
			<g id="XMLID_1543_">
				<path style="fill:#EA795C;" d="M223.207,172.572c-0.038,0-0.076-0.01-0.11-0.032c-0.094-0.061-0.121-0.186-0.061-0.28
					c0.682-1.061,0.843-2.458,0.42-3.646c-0.038-0.105,0.017-0.221,0.123-0.259c0.106-0.038,0.221,0.017,0.259,0.123
					c0.465,1.304,0.288,2.837-0.461,4.001C223.339,172.54,223.274,172.572,223.207,172.572z"/>
			</g>
			<g id="XMLID_1544_">
				<path style="fill:#EA795C;" d="M198.199,173.542c-0.055,0-0.111-0.023-0.151-0.067c-0.924-1.031-1.342-2.516-1.09-3.877
					c0.02-0.111,0.126-0.184,0.236-0.163c0.11,0.02,0.183,0.126,0.162,0.236c-0.23,1.24,0.151,2.594,0.993,3.533
					c0.075,0.083,0.068,0.212-0.015,0.286C198.296,173.525,198.248,173.542,198.199,173.542z"/>
			</g>
			<g id="XMLID_1568_">
				<g id="XMLID_1556_">
					<path style="fill:#353B4A;" d="M211.754,154.782c-0.03,0-0.06-0.007-0.089-0.021c-0.101-0.049-0.142-0.171-0.093-0.271
						c1.049-2.14,1.384-4.839,0.995-8.021c-0.014-0.111,0.065-0.212,0.177-0.226c0.111-0.017,0.212,0.065,0.226,0.177
						c0.399,3.262,0.051,6.038-1.034,8.249C211.902,154.74,211.83,154.782,211.754,154.782z"/>
				</g>
				<g id="XMLID_1557_">
					<path style="fill:#353B4A;" d="M219.696,147.343c-0.044,0-0.088-0.014-0.125-0.044c-2.281-1.797-4.368-0.78-5.409-0.013
						c-0.09,0.066-0.217,0.047-0.283-0.043c-0.067-0.09-0.047-0.217,0.043-0.283c1.929-1.42,4.079-1.413,5.9,0.022
						c0.088,0.069,0.103,0.197,0.034,0.285C219.816,147.317,219.756,147.343,219.696,147.343z"/>
				</g>
				<g id="XMLID_1558_">
					<path style="fill:#353B4A;" d="M218.081,151.167c-0.666,0-2.798-0.102-3.953-1.343c-0.076-0.082-0.072-0.21,0.01-0.287
						c0.082-0.076,0.21-0.071,0.287,0.01c1.223,1.314,3.812,1.212,3.838,1.21c0.122-0.004,0.207,0.082,0.212,0.193
						c0.005,0.112-0.081,0.207-0.193,0.212C218.265,151.164,218.194,151.167,218.081,151.167z"/>
				</g>
				<g id="XMLID_1559_">
					<path style="fill:#353B4A;" d="M218.3,158.488c-0.041,0-0.082-0.013-0.118-0.038c-1.56-1.122-2.135-2.207-2.596-3.079
						c-0.517-0.978-0.859-1.624-2.28-1.875c-0.11-0.019-0.184-0.124-0.164-0.235c0.019-0.11,0.124-0.184,0.235-0.164
						c1.616,0.286,2.036,1.079,2.568,2.084c0.442,0.835,0.991,1.874,2.475,2.94c0.091,0.065,0.112,0.192,0.046,0.283
						C218.425,158.459,218.363,158.488,218.3,158.488z"/>
				</g>
				<g id="XMLID_1560_">
					<path style="fill:#353B4A;" d="M210.54,146.654c-1.226,0-2.476-0.424-3.617-0.811c-1.692-0.574-3.152-1.07-4.025-0.083
						c-0.074,0.084-0.202,0.092-0.286,0.018c-0.084-0.074-0.092-0.202-0.018-0.286c1.05-1.19,2.706-0.628,4.459-0.033
						c1.521,0.516,3.244,1.1,4.762,0.594c0.107-0.036,0.221,0.022,0.257,0.128c0.035,0.106-0.022,0.221-0.128,0.257
						C211.485,146.59,211.014,146.654,210.54,146.654z"/>
				</g>
				<g id="XMLID_1562_">
					<path style="fill:#353B4A;" d="M208.195,150.48c-0.04,0-0.081-0.012-0.116-0.036c-0.092-0.064-0.114-0.191-0.05-0.282
						c0.813-1.164,2.345-0.768,3.427-0.369c0.105,0.039,0.159,0.155,0.12,0.26c-0.039,0.105-0.155,0.159-0.261,0.12
						c-1.539-0.568-2.451-0.5-2.954,0.221C208.322,150.449,208.259,150.48,208.195,150.48z"/>
				</g>
				<g id="XMLID_1563_">
					<path style="fill:#353B4A;" d="M204.661,156.568c-0.065,0-0.128-0.031-0.167-0.088c-0.063-0.092-0.04-0.219,0.053-0.282
						c1.389-0.952,2.086-1.014,2.7-1.069c0.747-0.067,1.393-0.125,3.3-1.956c0.081-0.077,0.209-0.075,0.287,0.006
						c0.078,0.081,0.075,0.209-0.006,0.287c-2.01,1.929-2.755,1.996-3.545,2.067c-0.593,0.053-1.206,0.108-2.507,1
						C204.741,156.557,204.701,156.568,204.661,156.568z"/>
				</g>
				<g id="XMLID_1564_">
					<path style="fill:#353B4A;" d="M198.186,167.161c-0.084,0-0.163-0.053-0.192-0.137c-0.268-0.787-0.967-1.402-1.782-1.567
						c-0.11-0.022-0.181-0.129-0.159-0.239c0.022-0.11,0.129-0.182,0.239-0.159c0.954,0.193,1.772,0.913,2.085,1.834
						c0.036,0.106-0.021,0.221-0.127,0.257C198.23,167.158,198.208,167.161,198.186,167.161z"/>
				</g>
				<g id="XMLID_1565_">
					<path style="fill:#353B4A;" d="M222.142,166.167c-0.009,0-0.018-0.001-0.027-0.002c-0.111-0.015-0.189-0.116-0.174-0.227
						c0.144-1.089,1.357-1.486,2.009-1.7c0.106-0.035,0.221,0.024,0.256,0.13c0.035,0.106-0.023,0.221-0.13,0.256
						c-0.785,0.257-1.631,0.596-1.733,1.367C222.329,166.093,222.242,166.167,222.142,166.167z"/>
				</g>
				<g id="XMLID_1566_">
					<path style="fill:#353B4A;" d="M196.371,160.544c-0.015,0-0.031-0.002-0.047-0.005c-0.109-0.026-0.176-0.135-0.151-0.244
						c0.34-1.447,0.952-2.27,1.491-2.997c0.929-1.252,1.663-2.241,0.814-5.848c-0.309-1.315-0.471-2.593,0.923-3.773
						c0.086-0.072,0.213-0.062,0.286,0.024c0.072,0.085,0.062,0.213-0.024,0.286c-1.116,0.944-1.142,1.876-0.79,3.371
						c0.891,3.789,0.069,4.898-0.883,6.182c-0.541,0.729-1.1,1.483-1.422,2.848C196.546,160.481,196.463,160.544,196.371,160.544z"
						/>
				</g>
				<g id="XMLID_1567_">
					<path style="fill:#353B4A;" d="M225.851,161.392c-0.028,0-0.057-0.006-0.084-0.018c-0.102-0.047-0.146-0.167-0.1-0.269
						c0.574-1.257,0.338-2.861-0.574-3.899c-0.396-0.45-0.832-0.773-1.254-1.085c-1.086-0.803-2.112-1.562-1.959-4.181
						c0.007-0.112,0.097-0.197,0.214-0.191c0.112,0.007,0.197,0.102,0.19,0.214c-0.14,2.4,0.714,3.032,1.795,3.831
						c0.439,0.325,0.894,0.661,1.318,1.144c1.014,1.155,1.277,2.938,0.638,4.336C226.002,161.348,225.928,161.392,225.851,161.392z"
						/>
				</g>
			</g>
			<path id="XMLID_67_" style="fill:#382823;" d="M203.974,170.254c-0.766-0.055-1.157-3.009,0.701-2.876
				C205.666,167.449,205.227,170.344,203.974,170.254z"/>
			<path id="XMLID_68_" style="fill:#382823;" d="M216.002,170.254c-0.766-0.055-1.157-3.009,0.7-2.876
				C217.694,167.449,217.255,170.344,216.002,170.254z"/>
		</g>
		<g id="XMLID_1542_">
			<path style="fill:#8A9077;" d="M199.44,192.444c4.881,5.481,14.175,9.205,20.57,0.841c0.507-0.662-0.057-0.857,14.097,4.31
				c6.299,53.712,8.921,67.532,3.764,68.037c-19.131,1.873-41.985,10.204-54.036,0.956c-6.981-5.357-1.556-64.37,0.517-69.033
				C199.286,191.794,198.79,191.714,199.44,192.444z"/>
			<path style="fill:#787160;" d="M199.556,271.053c-6.164,0-11.672-1.102-15.845-4.305c-4.064-3.118-3.759-23.234-3.216-34.947
				c0.748-16.125,2.62-31.965,3.671-34.329l0.034-0.077l0.078-0.03c3.252-1.255,5.773-2.239,7.733-3.005
				c6.984-2.73,6.985-2.73,7.542-2.094l0.038,0.043c2.546,2.859,6.969,5.853,11.722,5.673c3.313-0.124,6.185-1.746,8.536-4.82
				l0.051-0.069c0.515-0.711,0.513-0.713,13.701,4.102l0.693,0.253l0.014,0.124c0.975,8.316,1.863,15.681,2.646,22.179
				c3.695,30.654,5.077,42.124,2.619,45.185c-0.43,0.536-0.981,0.83-1.683,0.899c-5.161,0.505-10.681,1.497-16.02,2.456
				C214.248,269.659,206.488,271.053,199.556,271.053z M184.505,197.713c-1.037,2.575-2.886,18.632-3.605,34.107
				c-0.919,19.797,0.196,32.411,3.057,34.607c8.724,6.694,23.527,4.036,37.842,1.464c5.346-0.961,10.875-1.954,16.052-2.461
				c0.588-0.057,1.048-0.302,1.406-0.749c2.352-2.928,0.871-15.21-2.705-44.883c-0.779-6.466-1.662-13.789-2.632-22.056
				l-0.458-0.167c-12.171-4.443-12.899-4.709-13.234-4.245l-0.057,0.077c-2.428,3.175-5.403,4.85-8.843,4.979
				c-4.906,0.18-9.432-2.88-12.04-5.808l-0.04-0.046c-0.362-0.413-0.496-0.372-7.09,2.205
				C190.215,195.498,187.719,196.473,184.505,197.713z"/>
		</g>
		<g id="XMLID_1549_">
			<g id="XMLID_1551_">
				<path id="XMLID_1552_" style="fill:#EA795C;" d="M207.167,262.935c-0.735-0.763,0.878-1.849,1.419-0.573
					c0.178,0.419,0.061,0.923-0.216,1.284c0.995,0.201,1.293-1.651,2.277-1.558c1.862,0.175,0.41,9.405-5.059,8.389
					c-1.169-0.217-0.476-1.158-0.237-1.952C206.954,263.186,203.601,260.186,207.167,262.935z"/>
			</g>
			<path id="XMLID_1550_" style="fill:#F9A587;" d="M183.386,265.698l1.735-6.033l12.476,4.179c5.212-0.513,8.142-2.795,11.73,0.112
				c0.272,0.22,0.266,0.659-0.038,0.833c-1.29,0.743-2.54,0.155-3.093,0.074c-2.304-0.339-5.476,3.307-1.251,4.665
				c5.954,1.913,6.21-5.333,7.982-6c1.601-0.603,1.095,2.48-1.571,6.858c-1.507,2.474-1.861,1.168-5.299,2.449
				c-0.994,0.371-1.235,0.416-2.167-0.026C194.969,268.578,197.869,269.708,183.386,265.698z"/>
		</g>
		<g id="XMLID_1633_">
			<path style="fill:#8A9077;" d="M149.217,247.823c-6.225,9.45,0.959,13.307,6.755,15.049c7.646,2.299,39.496,10.096,40.744,6.737
				c2.251-6.059,2.566-7.139,1.279-7.858c-31.408-17.545-35.568-6.633-17.179-25.023c2.074-2.074,3.423-4.758,3.859-7.659
				c1.663-11.058,2.971-32.787-0.325-31.515C176.09,200.741,166.321,221.859,149.217,247.823z"/>
			<path style="fill:#787160;" d="M193.528,270.605c-8.974,0-32.83-6.1-37.615-7.539c-4.904-1.474-7.902-3.632-8.912-6.413
				c-0.906-2.497-0.218-5.505,2.046-8.942c5.486-8.327,10.215-16.152,14.387-23.056c8.806-14.572,15.169-25.101,20.844-27.29
				c0.317-0.123,0.623-0.076,0.885,0.134c2.578,2.068,1.163,21.96-0.287,31.601c-0.447,2.969-1.801,5.657-3.917,7.772
				c-2.373,2.373-4.375,4.262-5.983,5.78c-3.397,3.206-5.102,4.815-4.888,5.848c0.197,0.948,2.1,1.639,5.556,2.892
				c4.498,1.631,12.026,4.361,22.449,10.183c1.459,0.815,1.039,2.112-1.188,8.105C196.665,270.331,195.43,270.605,193.528,270.605z
				 M149.386,247.935c-2.189,3.323-2.863,6.21-2.003,8.58c0.963,2.654,3.873,4.728,8.647,6.163
				c9.954,2.993,39.417,9.763,40.496,6.861c2.221-5.977,2.495-6.982,1.371-7.61c-10.395-5.807-17.903-8.529-22.39-10.156
				c-3.71-1.345-5.572-2.02-5.814-3.191c-0.26-1.254,1.39-2.812,5.006-6.225c1.606-1.516,3.606-3.403,5.975-5.772
				c2.054-2.054,3.369-4.663,3.802-7.546c1.667-11.083,2.604-29.484,0.434-31.224c-0.149-0.12-0.303-0.143-0.486-0.072
				c-5.546,2.139-11.878,12.618-20.643,27.121C159.607,231.772,154.876,239.6,149.386,247.935L149.386,247.935z"/>
		</g>
		<g id="XMLID_1545_">
			<g id="XMLID_1547_">
				<path id="XMLID_1548_" style="fill:#EA795C;" d="M210.824,262.504c0.696-0.799-0.97-1.802-1.446-0.501
					c-0.156,0.427-0.015,0.925,0.281,1.272c-0.984,0.251-1.375-1.583-2.352-1.441c-1.851,0.269,0.064,9.414,5.475,8.124
					c1.157-0.276,0.417-1.18,0.138-1.962C211.049,262.744,214.248,259.579,210.824,262.504z"/>
			</g>
			<path id="XMLID_1546_" style="fill:#F9A587;" d="M234.715,264.066l-2.037-5.938l-12.249,4.802
				c-5.231-0.25-8.272-2.381-11.709,0.702c-0.261,0.234-0.232,0.671,0.08,0.83c1.326,0.678,2.544,0.027,3.093-0.082
				c2.284-0.454,5.635,3.027,1.484,4.596c-5.85,2.211-6.471-5.014-8.274-5.591c-1.629-0.522-0.969,2.532,1.914,6.77
				c1.63,2.395,1.918,1.073,5.416,2.179c1.012,0.32,1.255,0.353,2.163-0.135C223.291,267.526,220.452,268.801,234.715,264.066z"/>
		</g>
		<g id="XMLID_1634_">
			<path style="fill:#8A9077;" d="M245.798,249.012c-15.111,5.781-23.225,9.89-25.975,11.366c-1.73,0.928-0.349,2.661,1.135,8.021
				c0.217,0.784,0.992,1.282,1.795,1.156c48.586-7.615,50.943-11.554,46.586-21.143c-2.996-6.594-28.19-48.268-35.232-50.818
				c-2.552-0.924-2.966,20.242-1.317,28.989C234.323,234.71,249.652,247.538,245.798,249.012z"/>
			<path style="fill:#787160;" d="M222.503,269.778c-0.8,0-1.521-0.532-1.74-1.324c-0.416-1.505-0.828-2.732-1.159-3.719
				c-0.872-2.601-1.27-3.787,0.123-4.535c2.79-1.497,10.908-5.604,25.998-11.377c0.252-0.096,0.402-0.247,0.46-0.461
				c0.341-1.261-2.278-4.519-5.051-7.969c-3.642-4.531-7.769-9.667-8.543-13.771c-1.544-8.189-1.262-27.24,0.893-29.073
				c0.268-0.228,0.524-0.204,0.692-0.144c7.209,2.61,32.556,44.781,35.348,50.925c1.403,3.087,2.091,5.6,0.89,7.828
				c-2.666,4.946-15.13,8.505-47.629,13.599C222.69,269.771,222.596,269.778,222.503,269.778z M245.87,249.201
				c-15.069,5.765-23.168,9.862-25.951,11.356c-1.045,0.561-0.832,1.361,0.07,4.049c0.332,0.991,0.746,2.225,1.165,3.739
				c0.19,0.686,0.863,1.121,1.569,1.01c32.352-5.071,44.739-8.575,47.335-13.39c1.126-2.089,0.489-4.406-0.902-7.468
				c-3.413-7.51-28.267-48.232-35.117-50.711c-0.067-0.025-0.162-0.038-0.291,0.071c-1.887,1.606-2.376,20.106-0.757,28.689
				c0.755,4.005,5.028,9.321,8.461,13.592c3.085,3.838,5.521,6.87,5.126,8.329C246.484,248.811,246.246,249.057,245.87,249.201
				L245.87,249.201z"/>
		</g>
		<g id="XMLID_844_">
			<g id="XMLID_836_">
				<path style="fill:#FFBA73;" d="M201.064,253.375c-0.062,0-0.124-0.029-0.163-0.083c-3.876-5.276-8.699-11.842-9.439-19.337
					c-0.442-4.468,0.593-8.974,1.594-13.332c1.126-4.902,2.29-9.97,1.293-14.899c-0.546-2.699-1.72-5.245-2.855-7.706l-1.26-2.733
					c-0.047-0.102-0.002-0.222,0.099-0.269c0.102-0.047,0.222-0.002,0.269,0.099l1.26,2.733c1.145,2.483,2.329,5.05,2.885,7.795
					c1.014,5.015-0.16,10.127-1.295,15.07c-0.993,4.326-2.021,8.799-1.586,13.202c0.73,7.384,5.516,13.9,9.362,19.137
					c0.066,0.09,0.047,0.217-0.043,0.284C201.148,253.362,201.106,253.375,201.064,253.375z"/>
			</g>
			<g id="XMLID_838_">
				<path style="fill:#FFBA73;" d="M231.131,252.903c-0.127-0.009-0.211-0.106-0.202-0.218c0.453-6.059,0.922-12.324-0.355-18.376
					c-0.574-2.719-1.511-5.408-2.418-8.008c-1.259-3.61-2.56-7.344-2.909-11.216c-0.608-6.739,1.644-13.216,4.167-19.212
					c0.044-0.104,0.163-0.151,0.266-0.108c0.103,0.044,0.152,0.162,0.108,0.265c-2.503,5.948-4.737,12.368-4.137,19.019
					c0.344,3.822,1.637,7.532,2.888,11.119c0.911,2.612,1.852,5.313,2.432,8.058c1.29,6.109,0.818,12.403,0.363,18.49
					C231.325,252.822,231.236,252.903,231.131,252.903z"/>
			</g>
			<g id="XMLID_823_">
				<path style="fill:#FFFFFF;" d="M216.953,228.17c-9.275,0-18.694-2.48-27.242-4.73c-6.8-1.79-13.223-3.481-18.286-3.494
					c-1.672,0.003-3.374,0.161-5.041,0.494c-0.109,0.023-0.217-0.049-0.238-0.159c-0.022-0.11,0.049-0.217,0.159-0.238
					c1.693-0.337,3.412-0.496,5.121-0.502c5.115,0.014,11.563,1.711,18.389,3.508c11.12,2.928,23.724,6.247,35.505,3.95
					c3.835-0.747,7.553-2.068,11.15-3.345c4.984-1.77,10.138-3.6,15.716-3.956c0.109-0.011,0.208,0.078,0.215,0.189
					c0.007,0.112-0.078,0.208-0.189,0.215c-5.522,0.352-10.648,2.173-15.606,3.933c-3.61,1.282-7.344,2.608-11.208,3.361
					C222.616,227.938,219.79,228.17,216.953,228.17z"/>
			</g>
			<g id="XMLID_839_">
				<path style="fill:#FFBA73;" d="M150.068,260.361c-0.044,0-0.088-0.014-0.125-0.043c-0.088-0.069-0.103-0.196-0.034-0.285
					c2.442-3.103,5.286-5.978,8.036-8.759c4.597-4.647,9.351-9.452,12.241-15.377c1.76-3.609,2.796-7.581,3.798-11.422
					c0.889-3.412,1.809-6.94,3.236-10.225c0.972-2.239,2.194-4.395,3.376-6.48c1.005-1.774,2.045-3.608,2.923-5.48
					c0.855-1.823,1.491-3.595,1.891-5.267c0.026-0.109,0.136-0.175,0.244-0.15c0.109,0.026,0.176,0.135,0.15,0.244
					c-0.407,1.699-1.052,3.497-1.918,5.345c-0.885,1.886-1.928,3.728-2.937,5.508c-1.176,2.076-2.393,4.223-3.357,6.441
					c-1.414,3.256-2.33,6.769-3.216,10.166c-1.006,3.86-2.047,7.852-3.825,11.497c-2.919,5.985-7.697,10.814-12.317,15.485
					c-2.742,2.773-5.578,5.639-8.006,8.724C150.187,260.335,150.128,260.361,150.068,260.361z"/>
			</g>
			<g id="XMLID_842_">
				<path style="fill:#FFBA73;" d="M262.573,261.366c-0.052,0-0.104-0.02-0.144-0.06c-1.898-1.908-3.448-4.548-4.481-7.635
					c-0.829-2.478-1.335-5.081-1.824-7.599c-0.388-1.999-0.79-4.067-1.351-6.053c-1.516-5.371-4.272-10.547-8.19-15.382
					c-0.522-0.644-1.07-1.288-1.599-1.911c-1.396-1.641-2.839-3.338-3.968-5.221c-1.919-3.201-2.91-6.908-3.695-10.439
					c-0.605-2.722-1.128-5.497-1.556-8.251c-0.017-0.111,0.059-0.214,0.169-0.231c0.112-0.016,0.214,0.059,0.231,0.169
					c0.427,2.744,0.949,5.511,1.552,8.225c0.777,3.497,1.757,7.167,3.646,10.318c1.112,1.854,2.544,3.538,3.929,5.167
					c0.531,0.625,1.081,1.271,1.606,1.919c3.953,4.878,6.733,10.102,8.265,15.527c0.565,2.002,0.968,4.078,1.358,6.085
					c0.487,2.505,0.99,5.095,1.811,7.547c1.014,3.028,2.53,5.614,4.384,7.478c0.079,0.079,0.079,0.208-0.001,0.287
					C262.676,261.346,262.625,261.366,262.573,261.366z"/>
			</g>
			<g id="XMLID_824_">
				<path style="fill:#FFFFFF;" d="M214.154,244.729c-4.752,0-9.868-0.475-15.444-1.62c-4.491-0.923-8.983-2.276-13.327-3.584
					c-8.933-2.69-18.171-5.474-27.807-4.62c-0.108,0.008-0.21-0.073-0.22-0.184c-0.01-0.112,0.073-0.21,0.184-0.22
					c9.716-0.857,18.99,1.935,27.96,4.636c4.336,1.306,8.819,2.656,13.292,3.575c20.208,4.152,34.4-0.558,46.921-4.714
					c5.224-1.733,10.158-3.371,15.283-4.348c0.109-0.021,0.216,0.051,0.237,0.161c0.021,0.11-0.051,0.216-0.161,0.237
					c-5.099,0.972-10.021,2.606-15.232,4.335C236.721,241.409,226.716,244.728,214.154,244.729z"/>
			</g>
			<g id="XMLID_822_">
				<path style="fill:#FFFFFF;" d="M223.56,214.999c-7.218,0-14.341-1.953-21.256-3.849c-9.108-2.498-18.526-5.08-28.032-3.107
					c-0.111,0.025-0.217-0.048-0.24-0.157c-0.023-0.11,0.048-0.217,0.157-0.24c9.601-1.993,19.067,0.603,28.221,3.113
					c7.739,2.122,15.738,4.317,23.808,3.742c4.996-0.356,9.915-1.781,14.672-3.16c1.51-0.438,3.072-0.891,4.614-1.303
					c0.107-0.026,0.219,0.036,0.248,0.144c0.029,0.108-0.035,0.219-0.144,0.248c-1.538,0.411-3.098,0.863-4.606,1.3
					c-4.777,1.385-9.717,2.817-14.756,3.176C225.352,214.968,224.455,214.999,223.56,214.999z"/>
			</g>
			<g id="XMLID_837_">
				<path style="fill:#FFBA73;" d="M216.968,261.743c-0.018,0-0.037-0.002-0.056-0.008c-0.108-0.03-0.17-0.142-0.139-0.25
					c1.699-5.958,1.554-12.474-0.406-18.35c-0.774-2.32-1.838-4.585-2.868-6.776c-1.418-3.018-2.885-6.139-3.616-9.453
					c-1.137-5.155-0.469-10.588,0.177-15.842c0.526-4.273,1.069-8.691,0.605-12.849c-0.012-0.111,0.068-0.211,0.179-0.224
					c0.109-0.01,0.212,0.068,0.224,0.179c0.469,4.205-0.078,8.648-0.606,12.944c-0.642,5.22-1.306,10.617-0.183,15.705
					c0.721,3.27,2.178,6.37,3.587,9.368c1.034,2.201,2.104,4.478,2.885,6.82c1.986,5.952,2.132,12.555,0.412,18.589
					C217.137,261.685,217.056,261.743,216.968,261.743z"/>
			</g>
			<g id="XMLID_821_">
				<path style="fill:#FFFFFF;" d="M206.371,203.892c-5.28,0-10.589-1.161-15.774-2.294c-3.099-0.678-6.303-1.378-9.463-1.825
					c-0.111-0.016-0.188-0.118-0.173-0.229c0.016-0.111,0.12-0.188,0.229-0.173c3.175,0.449,6.387,1.151,9.493,1.83
					c7.293,1.594,14.834,3.243,22.144,1.61c2.353-0.525,4.467-1.325,6.705-2.171c3.412-1.29,7.279-2.752,13.173-3.745
					c0.11-0.018,0.215,0.056,0.234,0.166c0.019,0.111-0.056,0.215-0.166,0.234c-5.854,0.986-9.702,2.441-13.096,3.724
					c-2.252,0.852-4.379,1.656-6.76,2.188C210.748,203.692,208.561,203.892,206.371,203.892z"/>
			</g>
			<g id="XMLID_834_">
				<path style="fill:#FFFFFF;" d="M146.894,253.515c-0.065,0-0.129-0.032-0.169-0.09c-0.062-0.093-0.037-0.219,0.056-0.281
					c6.632-4.442,14.474-4.192,20.2-4.009c1.283,0.041,2.495,0.08,3.516,0.055c0.111,0.011,0.205,0.086,0.208,0.198
					c0.003,0.112-0.086,0.205-0.198,0.208c-1.033,0.025-2.25-0.013-3.539-0.055c-5.672-0.182-13.438-0.429-19.961,3.94
					C146.972,253.504,146.933,253.515,146.894,253.515z"/>
			</g>
			<g id="XMLID_832_">
				<path style="fill:#FFFFFF;" d="M167.667,266.121c-0.032,0-0.064-0.008-0.094-0.023c-0.099-0.052-0.137-0.175-0.085-0.274
					c3.049-5.799,8.143-10.074,14.346-12.039c0.107-0.033,0.221,0.025,0.254,0.132c0.034,0.107-0.025,0.221-0.132,0.255
					c-6.1,1.932-11.111,6.137-14.11,11.841C167.81,266.082,167.74,266.121,167.667,266.121z"/>
			</g>
			<g id="XMLID_828_">
				<path style="fill:#FFFFFF;" d="M270.832,253.753c-0.008,0-0.016,0-0.024-0.002c-5.022-0.598-9.526-2.535-13.883-4.41
					c-4.039-1.738-8.216-3.535-12.706-4.186c-0.111-0.016-0.188-0.119-0.171-0.23c0.016-0.111,0.118-0.187,0.23-0.172
					c4.543,0.658,8.745,2.466,12.808,4.214c4.33,1.863,8.807,3.789,13.771,4.38c0.111,0.013,0.191,0.114,0.177,0.225
					C271.021,253.678,270.933,253.753,270.832,253.753z"/>
			</g>
			<g id="XMLID_845_">
				<path style="fill:#FFBA73;" d="M213.629,266.625c-0.032,0-0.065-0.008-0.096-0.024c-0.099-0.053-0.136-0.176-0.083-0.274
					c1.434-2.676,7.964-3.857,16.23-5.353c6.873-1.243,14.663-2.652,20.959-5.251c1.658-0.684,3.308-1.478,4.904-2.246
					c2.933-1.411,5.966-2.87,9.171-3.71c0.889-0.233,1.859-0.424,2.886-0.626c0.632-0.124,1.28-0.252,1.932-0.394
					c0.109-0.025,0.217,0.045,0.241,0.155c0.024,0.109-0.045,0.217-0.155,0.241c-0.654,0.143-1.305,0.271-1.94,0.396
					c-1.021,0.201-1.985,0.391-2.861,0.621c-3.167,0.83-6.182,2.281-9.099,3.683c-1.601,0.77-3.257,1.567-4.925,2.255
					c-6.337,2.615-14.149,4.028-21.042,5.275c-7.836,1.418-14.603,2.642-15.945,5.146
					C213.771,266.586,213.701,266.625,213.629,266.625z"/>
			</g>
			<g id="XMLID_829_">
				<path style="fill:#FFFFFF;" d="M250.736,264.682c-0.031,0-0.062-0.007-0.091-0.022c-3.918-1.968-6.939-5.23-9.604-8.107
					c-2.329-2.514-4.529-4.889-7.002-6.121c-0.1-0.05-0.141-0.171-0.091-0.272c0.05-0.1,0.172-0.142,0.272-0.091
					c2.54,1.264,4.764,3.665,7.119,6.208c2.771,2.991,5.637,6.085,9.489,8.021c0.1,0.05,0.14,0.172,0.09,0.272
					C250.882,264.642,250.81,264.682,250.736,264.682z"/>
			</g>
			<g id="XMLID_846_">
				<path style="fill:#FFBA73;" d="M202.886,266.093c-0.011,0-0.022-0.001-0.033-0.002c-3.818-0.614-7.23-2.635-10.529-4.59
					c-3.24-1.92-6.59-3.904-10.297-4.526c-1.878-0.315-3.827-0.273-5.712-0.231c-0.855,0.018-1.739,0.036-2.607,0.024
					c-10.745-0.172-16.682-4.463-21.453-7.91c-0.89-0.643-1.731-1.251-2.545-1.786c-0.094-0.062-0.119-0.187-0.058-0.281
					c0.061-0.094,0.187-0.119,0.281-0.058c0.821,0.54,1.665,1.15,2.559,1.796c4.725,3.414,10.605,7.663,21.222,7.834
					c0.862,0.013,1.741-0.005,2.591-0.024c1.904-0.042,3.872-0.084,5.788,0.237c3.781,0.634,7.165,2.638,10.437,4.577
					c3.267,1.935,6.645,3.936,10.387,4.538c0.11,0.017,0.186,0.122,0.168,0.232C203.07,266.022,202.984,266.093,202.886,266.093z"/>
			</g>
		</g>
		<g id="XMLID_1640_">
			<g id="XMLID_1589_">
				<path style="fill:#787160;" d="M252.989,249.756c-1.636,0-3.266-0.434-4.684-1.271c-0.096-0.057-0.128-0.181-0.072-0.278
					c0.057-0.097,0.181-0.128,0.278-0.072c1.984,1.172,4.401,1.517,6.633,0.946c0.108-0.027,0.219,0.038,0.247,0.146
					c0.028,0.109-0.038,0.219-0.146,0.247C254.505,249.663,253.747,249.756,252.989,249.756z"/>
			</g>
			<g id="XMLID_1590_">
				<path style="fill:#787160;" d="M168.382,249.065c-2.36,0-4.641-1.319-5.816-3.366c-0.056-0.097-0.022-0.221,0.075-0.277
					c0.097-0.055,0.221-0.022,0.277,0.075c1.104,1.923,3.248,3.162,5.464,3.162c0.008,0,0.017,0.002,0.021,0
					c0.112,0,0.202,0.09,0.203,0.202C168.606,248.981,168.498,249.064,168.382,249.065z"/>
			</g>
			<g id="XMLID_1593_">
				<path style="fill:#787160;" d="M207.919,254.54c-0.099,0-0.185-0.072-0.2-0.172c-0.017-0.11,0.059-0.214,0.17-0.231
					c10.901-1.664,16.629-13.115,20.419-20.692c0.05-0.1,0.172-0.141,0.272-0.091c0.1,0.05,0.141,0.172,0.091,0.272
					c-3.828,7.652-9.612,19.215-20.72,20.911C207.939,254.539,207.929,254.54,207.919,254.54z"/>
			</g>
			<g id="XMLID_1637_">
				<path style="fill:#787160;" d="M208.828,201.698c-5.443,0-11.208-2.985-12.429-6.472c-0.037-0.106,0.019-0.221,0.124-0.258
					c0.107-0.036,0.222,0.019,0.258,0.124c1.188,3.394,6.933,6.311,12.293,6.199c0.114,0.007,0.204,0.087,0.206,0.199
					c0.002,0.112-0.087,0.204-0.199,0.206C208.997,201.698,208.912,201.698,208.828,201.698z"/>
			</g>
			<g id="XMLID_1638_">
				<path style="fill:#787160;" d="M182.485,238.737c-0.052,0-0.103-0.019-0.142-0.058c-0.08-0.079-0.081-0.207-0.002-0.287
					c2.535-2.573,4.15-5.967,4.55-9.557c0.013-0.111,0.115-0.189,0.224-0.179c0.111,0.012,0.192,0.113,0.179,0.224
					c-0.41,3.679-2.066,7.158-4.664,9.796C182.59,238.717,182.538,238.737,182.485,238.737z"/>
			</g>
		</g>
		<g id="XMLID_103_">
			<g id="XMLID_24_">
				<path style="fill:#858789;" d="M238.72,280.257h-56.823c-3.053,0-5.528-2.475-5.528-5.528v-40.784
					c0-3.053,2.475-5.528,5.528-5.528h56.823c3.053,0,5.528,2.475,5.528,5.528v40.784
					C244.248,277.782,241.773,280.257,238.72,280.257z"/>
				<path style="fill:#D2D4D5;" d="M238.72,280.46h-56.823c-3.16,0-5.731-2.571-5.731-5.731v-40.784c0-3.16,2.571-5.731,5.731-5.731
					h56.823c3.16,0,5.73,2.571,5.73,5.731v40.784C244.45,277.889,241.88,280.46,238.72,280.46z M181.897,228.62
					c-2.936,0-5.325,2.389-5.325,5.325v40.784c0,2.936,2.389,5.325,5.325,5.325h56.823c2.936,0,5.325-2.389,5.325-5.325v-40.784
					c0-2.936-2.389-5.325-5.325-5.325H181.897z"/>
			</g>
			<g id="XMLID_100_">
				<path style="fill:#D2D4D5;" d="M215.016,254.337c0,2.6-2.108,4.707-4.707,4.707c-2.6,0-4.708-2.108-4.708-4.707
					c0-2.6,2.108-4.708,4.708-4.708C212.908,249.63,215.016,251.737,215.016,254.337z"/>
				<path style="fill:#858789;" d="M210.308,259.247c-2.707,0-4.91-2.203-4.91-4.91c0-2.708,2.203-4.91,4.91-4.91
					c2.708,0,4.91,2.203,4.91,4.91C215.219,257.045,213.016,259.247,210.308,259.247z M210.308,249.832
					c-2.484,0-4.505,2.021-4.505,4.505c0,2.484,2.021,4.505,4.505,4.505c2.484,0,4.505-2.021,4.505-4.505
					C214.813,251.853,212.792,249.832,210.308,249.832z"/>
			</g>
		</g>
		<g id="XMLID_827_">
			<polygon style="fill:#FFFFFF;" points="193.458,247.567 193.091,247.394 193.127,247.316 193.497,247.483 			"/>
		</g>
	</g>
</g>
</svg>
