<?xml version="1.0" encoding="utf-8"?>
<!-- Generator: Adobe Illustrator 27.5.0, SVG Export Plug-In . SVG Version: 6.00 Build 0)  -->
<svg version="1.1" xmlns="http://www.w3.org/2000/svg" xmlns:xlink="http://www.w3.org/1999/xlink" x="0px" y="0px"
	 viewBox="0 0 500 500" style="enable-background:new 0 0 500 500;" xml:space="preserve">
<!-- <g id="BACKGROUND">
	<rect style="fill:#FAFAFF;" width="500" height="500"/>
</g> -->
<g id="OBJECTS">
	<g>
		<rect x="30" y="476" style="fill:#193B59;" width="440" height="2"/>
		<path style="fill:#96C1FA;" d="M348.628,475.999H151.372v-9.863c0-3.026,2.453-5.479,5.479-5.479h186.297
			c3.026,0,5.479,2.453,5.479,5.479V475.999z"/>
	</g>
	<g>
		<circle style="fill:#EBF5FF;" cx="207.873" cy="227.041" r="147.942"/>
		<circle style="fill:#EBF5FF;" cx="301.659" cy="342.376" r="82.19"/>
	</g>
	<g>
		<path style="opacity:0.25;fill:#96C1FA;" d="M445.055,105.619h-6.575c-1.211,0-2.192-0.981-2.192-2.192v-6.575
			c0-1.211,0.981-2.192,2.192-2.192h6.575c1.211,0,2.192,0.981,2.192,2.192v6.575C447.247,104.638,446.266,105.619,445.055,105.619z
			"/>
		<path style="opacity:0.25;fill:#96C1FA;" d="M282.771,84.579h-6.575c-1.21,0-2.192-0.981-2.192-2.192v-6.575
			c0-1.21,0.981-2.192,2.192-2.192h6.575c1.211,0,2.192,0.981,2.192,2.192v6.575C284.963,83.597,283.981,84.579,282.771,84.579z"/>
		<g>
			<path style="opacity:0.25;fill:#96C1FA;" d="M93.845,111.439H76.311c-1.21,0-2.192-0.981-2.192-2.192V91.714
				c0-1.211,0.981-2.192,2.192-2.192h17.534c1.211,0,2.192,0.981,2.192,2.192v17.534C96.037,110.458,95.056,111.439,93.845,111.439z
				"/>
			<path style="opacity:0.25;fill:#96C1FA;" d="M82.887,100.48H54.394c-1.21,0-2.192-0.981-2.192-2.192V69.796
				c0-1.211,0.981-2.192,2.192-2.192h28.492c1.21,0,2.192,0.981,2.192,2.192v28.492C85.078,99.499,84.097,100.48,82.887,100.48z"/>
		</g>
		<g>
			<path style="opacity:0.25;fill:#96C1FA;" d="M408.344,393.901h17.534c1.211,0,2.192-0.981,2.192-2.192v-17.534
				c0-1.21-0.981-2.192-2.192-2.192h-17.534c-1.211,0-2.192,0.981-2.192,2.192v17.534
				C406.152,392.919,407.133,393.901,408.344,393.901z"/>
			<path style="opacity:0.25;fill:#96C1FA;" d="M419.302,382.942h28.493c1.211,0,2.192-0.981,2.192-2.192v-28.492
				c0-1.211-0.981-2.192-2.192-2.192h-28.493c-1.21,0-2.192,0.981-2.192,2.192v28.492
				C417.111,381.961,418.092,382.942,419.302,382.942z"/>
		</g>
		<path style="opacity:0.25;fill:#96C1FA;" d="M439.576,140.284h-17.534c-1.211,0-2.192-0.981-2.192-2.192v-17.534
			c0-1.21,0.981-2.192,2.192-2.192h17.534c1.211,0,2.192,0.981,2.192,2.192v17.534C441.768,139.303,440.786,140.284,439.576,140.284
			z"/>
		<path style="opacity:0.25;fill:#96C1FA;" d="M109.757,397.971H92.223c-1.21,0-2.192-0.981-2.192-2.192v-17.534
			c0-1.21,0.981-2.192,2.192-2.192h17.534c1.21,0,2.192,0.981,2.192,2.192v17.534C111.949,396.99,110.968,397.971,109.757,397.971z"
			/>
		<path style="opacity:0.25;fill:#96C1FA;" d="M71.928,366.98h-6.575c-1.21,0-2.192-0.981-2.192-2.192v-6.575
			c0-1.21,0.981-2.192,2.192-2.192h6.575c1.21,0,2.192,0.981,2.192,2.192v6.575C74.12,365.999,73.138,366.98,71.928,366.98z"/>
		<path style="opacity:0.25;fill:#96C1FA;" d="M436.836,284.193h-6.575c-1.211,0-2.192-0.981-2.192-2.192v-6.575
			c0-1.21,0.981-2.192,2.192-2.192h6.575c1.21,0,2.192,0.981,2.192,2.192v6.575C439.028,283.211,438.047,284.193,436.836,284.193z"
			/>
	</g>
	<g>
		<path style="fill:#96C1FA;" d="M186.758,141.055v6.903c19.331-1.567,40.733-2.433,63.242-2.433
			c22.509,0,43.911,0.866,63.242,2.433v-6.903c0-2.289-1.76-4.2-4.042-4.37c-18.256-1.368-38.249-2.118-59.2-2.118
			c-20.951,0-40.944,0.75-59.2,2.118C188.517,136.855,186.758,138.766,186.758,141.055z"/>
		<g>
			<path style="fill:#9973D1;" d="M295.084,168.111v35.594c2.203,0.12,4.395,0.252,6.575,0.395v-35.594
				C299.478,168.363,297.286,168.232,295.084,168.111z"/>
			<path style="fill:#9973D1;" d="M287.983,154.422v48.921c-2.181-0.093-4.372-0.198-6.575-0.28V154.15
				C283.61,154.232,285.804,154.322,287.983,154.422z"/>
			<path style="fill:#9973D1;" d="M274.306,160.582v42.28c-2.181-0.077-4.372-0.132-6.575-0.164v-42.275
				C269.932,160.467,272.125,160.519,274.306,160.582z"/>
			<path style="fill:#9973D1;" d="M254.055,166.917v35.616c2.203,0,4.394,0.011,6.575,0.044v-35.605
				C258.449,166.939,256.257,166.917,254.055,166.917z"/>
			<path style="fill:#9973D1;" d="M246.953,173.578v28.944c-2.203,0-4.394,0.022-6.575,0.044v-28.941
				C242.561,173.6,244.754,173.585,246.953,173.578z"/>
		</g>
		<g>
			<path style="fill:#9973D1;" d="M295.084,187.882v15.823c2.203,0.079,4.395,0.301,6.575,0.395v-15.96
				C299.478,188.047,297.286,187.961,295.084,187.882z"/>
			<path style="fill:#9973D1;" d="M287.983,171.632v31.712c-2.181-0.061-4.372-0.226-6.575-0.28v-31.61
				C283.61,171.508,285.804,171.566,287.983,171.632z"/>
			<path style="fill:#9973D1;" d="M274.306,177.985v24.876c-2.181-0.05-4.372-0.143-6.575-0.164V177.88
				C269.932,177.91,272.125,177.944,274.306,177.985z"/>
			<path style="fill:#9973D1;" d="M254.055,179.798v22.734c2.203,0,4.394,0.022,6.575,0.044v-22.742
				C258.449,179.812,256.257,179.798,254.055,179.798z"/>
			<path style="fill:#9973D1;" d="M246.953,184.151v18.37c-2.203,0-4.394,0.029-6.575,0.044v-18.384
				C242.561,184.166,244.754,184.156,246.953,184.151z"/>
		</g>
		<path style="opacity:0.4;fill:#96C1FA;" d="M186.758,141.052v64.633c0,2.544,2.156,4.559,4.693,4.371
			c18.08-1.337,37.846-2.069,58.549-2.069c20.703,0,40.469,0.732,58.549,2.069c2.537,0.188,4.693-1.827,4.693-4.371v-64.633
			c0-2.289-1.76-4.2-4.042-4.37c-18.256-1.368-38.249-2.118-59.2-2.118c-20.951,0-40.944,0.75-59.2,2.118
			C188.517,136.852,186.758,138.763,186.758,141.052z"/>
		<g>
			<path style="fill:#FAFAFF;" d="M192.237,155.597v3.551c12.657-0.932,25.84-1.545,39.396-1.819v-3.551
				C218.077,154.051,204.894,154.665,192.237,155.597z"/>
			<path style="fill:#FAFAFF;" d="M223.853,161.086c-10.823,0.326-21.397,0.86-31.616,1.612v3.551
				c10.218-0.752,20.792-1.286,31.616-1.612V161.086z"/>
			<path style="fill:#FAFAFF;" d="M213.793,168.556c-7.325,0.317-14.529,0.726-21.556,1.243v3.551
				c7.027-0.517,14.23-0.926,21.556-1.243V168.556z"/>
			<path style="fill:#FAFAFF;" d="M218.724,182.124c-9.034,0.333-17.89,0.806-26.487,1.439v3.551
				c8.597-0.633,17.453-1.106,26.487-1.439V182.124z"/>
			<path style="fill:#FAFAFF;" d="M227.538,175.19c-12.112,0.308-23.927,0.873-35.301,1.71v3.551
				c11.336-0.834,23.112-1.398,35.182-1.707L227.538,175.19z"/>
		</g>
	</g>
	<g>
		<g style="opacity:0.6;">
			
				<rect x="353.844" y="55.999" style="fill:none;stroke:#96C1FA;stroke-linecap:round;stroke-linejoin:round;stroke-miterlimit:10;" width="38.662" height="38.662"/>
			
				<rect x="339.905" y="70.191" style="fill:none;stroke:#96C1FA;stroke-linecap:round;stroke-linejoin:round;stroke-miterlimit:10;" width="38.662" height="38.662"/>
			
				<line style="fill:none;stroke:#96C1FA;stroke-linecap:round;stroke-linejoin:round;stroke-miterlimit:10;" x1="378.567" y1="70.191" x2="392.506" y2="55.999"/>
			
				<line style="fill:none;stroke:#96C1FA;stroke-linecap:round;stroke-linejoin:round;stroke-miterlimit:10;" x1="392.506" y1="94.661" x2="378.567" y2="108.853"/>
			
				<line style="fill:none;stroke:#96C1FA;stroke-linecap:round;stroke-linejoin:round;stroke-miterlimit:10;" x1="353.844" y1="94.661" x2="339.905" y2="108.853"/>
			
				<line style="fill:none;stroke:#96C1FA;stroke-linecap:round;stroke-linejoin:round;stroke-miterlimit:10;" x1="339.905" y1="70.191" x2="353.844" y2="55.999"/>
		</g>
		<g style="opacity:0.6;">
			<circle style="fill:none;stroke:#96C1FA;stroke-miterlimit:10;" cx="168.073" cy="82.426" r="32.876"/>
			<ellipse style="fill:none;stroke:#96C1FA;stroke-miterlimit:10;" cx="168.073" cy="82.426" rx="12.054" ry="32.876"/>
			<ellipse style="fill:none;stroke:#96C1FA;stroke-miterlimit:10;" cx="168.073" cy="82.426" rx="32.876" ry="12.054"/>
		</g>
	</g>
	<g>
		<path style="fill:none;stroke:#96C1FA;stroke-linecap:round;stroke-linejoin:round;stroke-miterlimit:10;" d="M132.195,348.853
			c0-10.591,52.743-19.178,117.805-19.178s117.805,8.586,117.805,19.178"/>
		<path style="fill:none;stroke:#96C1FA;stroke-linecap:round;stroke-linejoin:round;stroke-miterlimit:10;" d="M148.085,407.599
			c0-7.565,45.629-13.698,101.915-13.698s101.915,6.133,101.915,13.698"/>
		<path style="fill:none;stroke:#96C1FA;stroke-linecap:round;stroke-linejoin:round;stroke-miterlimit:10;" d="M113.017,286.5
			c0-13.618,61.329-24.657,136.983-24.657s136.983,11.039,136.983,24.657"/>
		<g>
			<g>
				<g>
					<polygon style="fill:#E7B7B7;" points="212.94,430.46 212.56,446.52 229.925,449.562 231.052,431.125 					"/>
					<g>
						<path style="fill:#9973D1;" d="M179.58,459.026l51.066,0.001c0,0,1.091-10.28,0.272-13.073
							c-0.125-0.431-0.299-0.684-0.529-0.692c-1.836-0.047-2.546,2.189-10.089,2.193c-3.293-0.002-5.251-2.598-6.8-3.527
							c-0.165-0.106-0.326-0.192-0.485-0.244c-2.938-1.067-2.103,1.972-4.688,4.592c-0.37,0.383-0.826,0.763-1.377,1.111
							c-0.179,0.117-0.399,0.241-0.651,0.356c-0.077,0.037-0.161,0.079-0.246,0.122l-0.027,0.01
							c-0.147,0.068-0.307,0.134-0.474,0.206c-0.424,0.179-0.908,0.357-1.446,0.542c-0.53,0.179-1.108,0.372-1.725,0.56
							c-0.007,0.006-0.007,0.006-0.02,0.004C194.236,453.665,179.589,456.586,179.58,459.026z"/>
						<rect x="179.583" y="459.023" style="fill:#193B59;" width="51.064" height="1.631"/>
						<path style="fill:#193B59;" d="M231.197,451.152c-2.197,0.295-4.249,1.341-5.95,3.133c-1.352,1.424-2.319,3.131-2.918,4.742
							h1.065c0.571-1.401,1.443-2.857,2.578-4.053c1.089-1.146,2.813-2.483,5.188-2.827
							C231.174,451.814,231.187,451.482,231.197,451.152z"/>
						<path style="fill:#193B59;" d="M209.317,451.554c0.867-0.759-0.352-1.817-1.696-2.649c-0.208,0.165-0.427,0.327-0.671,0.482
							c-0.179,0.117-0.399,0.241-0.651,0.356c-0.077,0.037-0.161,0.079-0.246,0.122l-0.027,0.01
							c-0.147,0.068-0.307,0.134-0.474,0.206c-0.424,0.179-0.908,0.357-1.446,0.542c-0.53,0.179-1.108,0.372-1.725,0.56
							c-0.007,0.006-0.007,0.006-0.02,0.004c-2.964,0.905-6.795,1.868-10.468,2.845C191.902,454.03,207.675,452.992,209.317,451.554
							z"/>
					</g>
				</g>
				<g>
					<polygon style="fill:#E7B7B7;" points="269.11,428.063 274.334,449.562 291.019,449.562 286.078,427.457 					"/>
					<g>
						<path style="fill:#9973D1;" d="M293.16,459.025H268.8c0-4.16,2.98-8.26,3.17-8.52c0-0.01,0-0.01,0.01-0.01
							c0.16-1.9,0.38-3.62,0.65-4.54c0.12-0.43,0.3-0.68,0.52-0.69c1.35-0.04,1.1,1.53,3.8,2.37c0.47-0.42,1.79-1.39,4.21-1.39
							c2.67,0,4.01,1.19,4.33,1.52c3.54-0.79,3.85-2.54,5.26-2.5c0.23,0.01,0.41,0.26,0.53,0.69
							C293.16,452.545,293.16,459.025,293.16,459.025z"/>
						<rect x="268.8" y="459.023" style="fill:#193B59;" width="24.36" height="1.631"/>
						<path style="fill:#193B59;" d="M276.772,451.375c4.061-1.035,8.122,0.54,8.122,0.54s-1.868,2.7-6.66,2.7
							C276.772,454.615,276.772,451.375,276.772,451.375z"/>
						<path style="fill:#193B59;" d="M292.565,452.018c-1.897,0.795-2.612,4.43-2.88,7.007h1.006c0.277-2.535,0.916-5.2,2.02-5.952
							C292.667,452.73,292.618,452.378,292.565,452.018z"/>
					</g>
				</g>
				<g>
					<path style="fill:#193B59;" d="M210.48,362.67c-0.555,14.004-1.163,38.395-1.163,69.175c7.673,2.612,18.568,2.492,28.048,1.396
						l4.098-62.932c0-5.41,1.758-13.046,2.076-39.085c4.44,22.66,6.63,37.378,7.741,45.271c1.064,7.56,6.6,29.28,12.446,55.457
						c9.661,1.584,24.196-2.005,26.67-4.607l-10.136-53.73c0,0-6.024-43.034-3.78-50.31c2.071-6.717,3.003-26.717-4.75-36.628
						h-54.367C217.362,286.677,210.96,350.563,210.48,362.67z"/>
					<g>
						<defs>
							<path id="SVGID_1_" d="M217.362,286.677h54.367c7.754,9.911,6.822,29.912,4.75,36.628c-2.244,7.276,3.78,50.31,3.78,50.31
								l10.136,53.73c-2.474,2.602-17.009,6.19-26.67,4.607c-5.846-26.177-11.382-47.897-12.446-55.457
								c-1.111-7.893-3.301-22.611-7.741-45.271c-0.318,26.039-2.076,33.675-2.076,39.085l-4.098,62.932
								c-9.48,1.096-20.375,1.215-28.048-1.396c0-30.78,0.608-55.171,1.163-69.175C210.96,350.563,217.362,286.677,217.362,286.677z
								"/>
						</defs>
						<clipPath id="SVGID_00000054247217099781780460000015609049870790579631_">
							<use xlink:href="#SVGID_1_"  style="overflow:visible;"/>
						</clipPath>
						<g style="clip-path:url(#SVGID_00000054247217099781780460000015609049870790579631_);">
							<path style="fill:none;stroke:#193B59;stroke-linecap:round;stroke-linejoin:round;stroke-miterlimit:10;" d="
								M216.36,443.464c-3.6-39.249,8.1-167.229,8.1-167.229l14.58,4.368c-12.96,63.132-8.65,164.659-8.65,164.659l44.645-6.753
								c-21.955-67.414-27.355-157.906-27.355-157.906l12.95,2.204c0.73,55.888,26.65,159.208,26.65,159.208"/>
							<path style="fill:none;stroke:#193B59;stroke-linecap:round;stroke-linejoin:round;stroke-miterlimit:10;" d="
								M243.539,331.224c-1.619-14.309-1.619-22.949-1.619-22.949"/>
						</g>
					</g>
				</g>
			</g>
			<path style="fill:#193B59;" d="M264.23,241.365c-18.19-18.01-26.68-42.38-26.68-42.38c-7.14-4.18-11.65-20.535-5.08-29.49
				c2.797-3.812,6.533-5.763,10.68-6.6c9.435-1.905,17.48,0.075,22.64,6.04c2.916,3.371,3.57,6.17,5.09,12.5v0.01
				c8,23.45,25.4,32.51,25.4,32.51c-5.73-1.73-10.36-4.71-14.06-8.11c2.26,2.93,5.01,5.95,8.33,9.03
				C304.92,228.195,282.43,259.385,264.23,241.365z"/>
			<g>
				<g>
					<path style="fill:#E7B7B7;" d="M217.829,232.033c0,0-15.983,7.586-20.77,7.003c-6.877-0.838-34.525-16.679-34.525-16.679
						l5.38-9.598c0,0,25.235,10.85,27.764,10.526c1.246-0.156,10.274-3.782,19.751-7.005L217.829,232.033z"/>
					<g>
						<path style="fill:#E7B7B7;" d="M167.914,212.758c0,0-12.536-8.405-15.192-9.016c-2.656-0.611-11.988-2.867-12.904-2.805
							c-1.223,0.082-1.6,1.773-0.826,2.393c0.688,0.551,9.575,3.45,9.575,3.45s-11.09-2.48-12.796-2.341
							c-1.207,0.099-1.85,2.009-0.698,2.671c1.136,0.652,11.979,3.438,11.979,3.438s-10.788-1.819-11.276-1.802
							c-1.058,0.036-1.379,1.653-0.512,2.133c0.726,0.402,10.609,3.091,10.609,3.091s-3.548,0.275-4.042,0.352
							c-0.617,0.096-3.918,0.782-4.145,0.923c-0.622,0.389-0.234,1.454,0.699,1.537c0.595,0.053,3.367-0.262,3.778-0.346
							c0.211-0.044,5.375,0.34,5.989,0.752c5.945,4.002,14.381,5.169,14.381,5.169L167.914,212.758z"/>
						
							<path style="fill:none;stroke:#7A1F0C;stroke-width:0.5;stroke-linecap:round;stroke-linejoin:round;stroke-miterlimit:10;" d="
							M157.071,216.617c-2.7-1.542-6.049-5.992-6.049-5.992l-5.027-0.555c-0.965-0.743-1.035-2.16,0.54-2.67
							c1.575-0.51,5.115-0.435,5.115-0.435l4.83,1.38"/>
					</g>
				</g>
				<path style="fill:#193B59;" d="M298.754,237.262c5.206,5.313-5.82,23.256-12.036,17.978
					C280.502,249.963,293.023,231.413,298.754,237.262z"/>
				<g>
					<g>
						<path style="fill:#E7B7B7;" d="M323.514,282.807c0.434,0.661,3.416,2.845,2.574,6.958c-0.421,2.056,0.909,6.228,0.967,6.891
							c0.187,2.125,1.461,4.853,1.668,5.582c0.091,0.32,1.865,0.414,2.351-1.649c0.192-0.815,0.017-1.868-0.641-3.654
							c-0.345-0.938-0.427-3.619,0.238-3.972c0.845-0.448,1.599-0.368,2.447,0.615c2.166,2.509,5.9,10.345,6.806,10.862
							c0.746,0.426,2.698-0.011,2.247-1.942c-0.45-1.931,1.398,1.353,2.273,2.205c1.685,1.642,3.107,0.107,2.753-0.96
							c-0.837-2.522-0.471-2.613,0.487-1.89c1.219,0.92,2.698-0.488,2.137-1.678c-0.212-0.45-3.643-6.907-2.281-5.909
							c1.315,0.965,2.931-0.519,1.761-2.063c-1.017-1.342-3.96-5.834-5.133-7.225c-1.538-1.824-2.872-4.193-12.18-11.282
							L323.514,282.807z"/>
						<g>
							
								<path style="fill:none;stroke:#7A1F0C;stroke-width:0.5;stroke-linecap:round;stroke-linejoin:round;stroke-miterlimit:10;" d="
								M346.71,301.525c-1.943-4.545-6.42-11.34-6.42-11.34"/>
							
								<path style="fill:none;stroke:#7A1F0C;stroke-width:0.5;stroke-linecap:round;stroke-linejoin:round;stroke-miterlimit:10;" d="
								M347.19,294.115c-1.964-3.346-4.23-6.03-4.23-6.03"/>
							
								<path style="fill:none;stroke:#7A1F0C;stroke-width:0.5;stroke-linecap:round;stroke-linejoin:round;stroke-miterlimit:10;" d="
								M342.12,301.88c-1.17-4.555-5.94-10.663-5.94-10.663"/>
						</g>
					</g>
					<path style="fill:#E7B7B7;" d="M331.988,273.698l-8.474,9.11l-28.76-24.307l-15.271-11.691l10.762-16.177l4.524,3.962
						C313.094,252.24,331.988,273.698,331.988,273.698z"/>
				</g>
				<g>
					<path style="fill:#9973D1;" d="M216.18,291.355c3.15-21.722,3.603-43.671,3.603-43.671c-4.873-5.245-1.788-12.624-1.788-12.624
						l-13.079,4.009c-2.876-3.896-4.739-12.62-4.405-18.094c25.117-10.993,34.017-10.993,34.017-10.993s17.401,0.837,34.854,4.663
						c4.669,1.019,16.74,10.653,29.373,22.618c-6.197-2.696-17.974,13.254-12.036,17.978l-15.434-13.104
						c-2.514,10.487-4.084,31.484,0.619,44.573C259.02,294.325,229.86,293.965,216.18,291.355z"/>
					<g>
						<path style="fill:none;stroke:#193B59;stroke-linecap:round;stroke-linejoin:round;stroke-miterlimit:10;" d="
							M242.213,249.969c10.087,4.534,17.477-1.33,17.477-1.33"/>
						<path style="fill:none;stroke:#193B59;stroke-linecap:round;stroke-linejoin:round;stroke-miterlimit:10;" d="
							M271.305,242.238c-2.948-2.61-6.03-6.075-6.03-6.075"/>
						<path style="fill:none;stroke:#193B59;stroke-linecap:round;stroke-linejoin:round;stroke-miterlimit:10;" d="M219.825,247.75
							c0.922,0.945,3.285,2.497,7.312,2.34"/>
						<path style="fill:none;stroke:#193B59;stroke-linecap:round;stroke-linejoin:round;stroke-miterlimit:10;" d="
							M217.995,235.059c1.909-6.479,6.465-13.724,6.465-13.724"/>
						<path style="fill:none;stroke:#193B59;stroke-linecap:round;stroke-linejoin:round;stroke-miterlimit:10;" d="M260.63,276.235
							c-10.63,13.14-39.403,7.56-39.403,7.56"/>
					</g>
					<path style="fill:#FAFAFF;" d="M264.234,213.598c-9.643-1.818-18.737-2.772-24.262-3.234
						c-5.27,9.703-0.996,20.269-0.996,20.269S259.865,223.618,264.234,213.598z"/>
					<path style="fill:#E7B7B7;" d="M259.863,214.455l-0.145-1.657c-7.222-1.195-13.831-1.912-18.468-2.324l-0.411,3.981
						c-1.025,5.882,0,11.463,0,11.463S259.172,219.507,259.863,214.455z"/>
				</g>
			</g>
			<g>
				<g>
					<path style="fill:#E7B7B7;" d="M242.879,189.68c0.265,2.831-2.035,24.773-2.035,24.773c-0.7,10.553,18.481,4.592,19.022,0
						l-2.456-27.706L242.879,189.68z"/>
					<path style="fill:#7A1F0C;" d="M241.401,208.952c8.918-3.213,8.033-9.255,8.033-9.255l-7.142-0.259
						C242.01,202.688,241.677,206.161,241.401,208.952L241.401,208.952z"/>
				</g>
				<path style="fill:#E7B7B7;" d="M232.805,176.851c-2.816,4.476-0.915,6.905-0.915,11.362c0,4.78-1.83,11.562,2.002,15.098
					c3.968,3.662,13.157,3.841,19.447-4.091c6.351-8.008,4.906-21.372-1.995-24.823C245.442,171.445,236.7,170.658,232.805,176.851z
					"/>
				<g>
					<path style="fill:#7A1F0C;" d="M236.701,195.103c-2.188,0-2.623-0.44-2.965-1.014c-0.214-0.359-0.018-1.056,0.442-2.603
						c0.316-1.064,0.675-2.271,0.866-3.374c0.024-0.139,0.149-0.23,0.296-0.209c0.139,0.024,0.233,0.157,0.208,0.296
						c-0.196,1.133-0.576,2.408-0.88,3.433c-0.259,0.868-0.581,1.948-0.515,2.159c0.235,0.394,0.477,0.8,2.547,0.8
						c0.142,0,0.256,0.115,0.256,0.256C236.957,194.989,236.843,195.103,236.701,195.103z"/>
					<path style="fill:#E3A2A2;" d="M251.968,188.924c1.018,1.915,0.473,4.197-1.219,5.096c-1.691,0.899-3.888,0.076-4.906-1.84
						c-1.018-1.915-0.473-4.197,1.219-5.096C248.753,186.185,250.95,187.009,251.968,188.924z"/>
					<g>
						<path style="fill:#7A1F0C;" d="M243.423,194.338c-1.854,1.328-4.584,2.502-6.33,2.104c0.976,1.345,2.148,3.307,5.028,2.288
							C243.896,198.101,244.109,196.258,243.423,194.338z"/>
						<path style="fill:#FAFAFF;" d="M243.74,195.638c-0.055-0.42-0.158-0.857-0.316-1.3c-0.232,0.166-0.477,0.33-0.733,0.488
							c-0.511,0.317-1.062,0.613-1.625,0.866c-1.406,0.633-2.881,0.998-3.972,0.749c0.276,0.38,0.569,0.808,0.91,1.205
							C240.913,197.472,242.693,196.548,243.74,195.638z"/>
					</g>
					<g>
						<path style="fill:#193B59;" d="M240.976,186.018c0,0.928-0.442,1.681-0.987,1.681c-0.545,0-0.987-0.753-0.987-1.681
							c0-0.929,0.442-1.681,0.987-1.681C240.534,184.337,240.976,185.09,240.976,186.018z"/>
						<path style="fill:#193B59;" d="M238.235,182.948c0.264,0.604,1.264-0.338,2.61-0.432c1.124-0.079,2.401,0.453,2.867,0.867
							c0.089-0.809-1.036-1.84-2.564-1.942C238.888,181.291,238.235,182.948,238.235,182.948z"/>
						<path style="fill:#193B59;" d="M239.989,184.337c-0.885-0.138-1.754,0.02-1.754,0.02l1.754,0.528V184.337z"/>
					</g>
					<g>
						<path style="fill:#193B59;" d="M233.611,186.746c0,0.77-0.366,1.393-0.818,1.393s-0.818-0.624-0.818-1.393
							c0-0.77,0.366-1.393,0.818-1.393S233.611,185.977,233.611,186.746z"/>
						<path style="fill:#193B59;" d="M234.013,183.951c-0.134,0.763-1.184-0.114-1.978,0.199c-0.724,0.286-1.294,0.821-1.556,1.269
							c-0.233-0.517,0.17-1.561,1.16-1.957C233.104,182.876,234.013,183.951,234.013,183.951z"/>
						<path style="fill:#193B59;" d="M232.792,185.353c-0.885-0.138-1.403,0.008-1.403,0.008l1.403,0.436V185.353z"/>
					</g>
				</g>
				<path style="fill:#193B59;" d="M252.699,170.304c-6.193-2.743-14.708-3.982-19.088-0.419
					c-5.013,4.077-3.645,11.219-3.645,11.219c2.827,1.681,8.813,2.279,16.417-4.306c0,4.343,4.762,10.422,7.079,11.798
					c2.11,1.251,2.231-2.449,3.976-3.928C257.969,184.428,258.892,173.047,252.699,170.304z"/>
				<g>
					<path style="fill:#FAFAFF;" d="M248.202,191.467h-13.15c-2.421,0-4.383-1.963-4.383-4.383v-2.192
						c0-2.421,1.963-4.383,4.383-4.383h13.15c2.421,0,4.383,1.963,4.383,4.383v2.192
						C252.585,189.504,250.623,191.467,248.202,191.467z"/>
					<path style="fill:#BF504C;" d="M243.818,191.467h-13.15c-2.421,0-4.383-1.963-4.383-4.383v-2.192
						c0-2.421,1.963-4.383,4.383-4.383h13.15c2.421,0,4.383,1.963,4.383,4.383v2.192
						C248.202,189.504,246.239,191.467,243.818,191.467z"/>
					<path style="fill:#FAFAFF;" d="M227.38,187.083v-2.192c0-1.816,1.472-3.288,3.288-3.288h13.15c1.816,0,3.288,1.472,3.288,3.288
						v2.192c0,1.816-1.472,3.288-3.288,3.288h-13.15C228.852,190.371,227.38,188.899,227.38,187.083z"/>
					<path style="fill:#BF504C;" d="M263.281,186.9H250.39v-3.601h12.891c0.605,0,1.096,0.491,1.096,1.096v1.409
						C264.377,186.41,263.886,186.9,263.281,186.9z"/>
					<g>
						<defs>
							<path id="SVGID_00000129918432253054670840000012158705904521251997_" d="M227.38,187.083v-2.192
								c0-1.816,1.472-3.288,3.288-3.288h13.15c1.816,0,3.288,1.472,3.288,3.288v2.192c0,1.816-1.472,3.288-3.288,3.288h-13.15
								C228.852,190.371,227.38,188.899,227.38,187.083z"/>
						</defs>
						<clipPath id="SVGID_00000159461840207200968070000011720691427376140694_">
							<use xlink:href="#SVGID_00000129918432253054670840000012158705904521251997_"  style="overflow:visible;"/>
						</clipPath>
						<g style="opacity:0.35;clip-path:url(#SVGID_00000159461840207200968070000011720691427376140694_);">
							
								<rect x="232.586" y="173.828" transform="matrix(0.866 0.5 -0.5 0.866 123.5153 -92.0249)" style="fill:#96C1FA;" width="1.799" height="21.304"/>
							
								<rect x="237.737" y="177.54" transform="matrix(0.866 0.5 -0.5 0.866 126.1737 -94.5044)" style="fill:#96C1FA;" width="3.397" height="21.304"/>
						</g>
					</g>
					<path style="fill:#BF504C;" d="M238.887,186.536h-3.288c-0.302,0-0.548-0.245-0.548-0.548l0,0c0-0.303,0.245-0.548,0.548-0.548
						h3.288c0.303,0,0.548,0.245,0.548,0.548l0,0C239.435,186.29,239.19,186.536,238.887,186.536z"/>
					<path style="fill:#BF504C;" d="M255.159,183.383c0-8.193-7.029-21.94-21.046-15.815c0,0,3.13-4.464,9.337-4.816
						c13.17,0,17.467,9.923,17.467,20.631H255.159z"/>
				</g>
				<g>
					<path style="fill:#E7B7B7;" d="M257.438,184.668c1.764-2.287,5.312-1.601,6.145,1.267c0.573,1.973,0.005,7.55-5.609,7.173
						C252.757,192.757,256.147,186.342,257.438,184.668z"/>
					<path style="fill:#7A1F0C;" d="M258.187,189.99c-0.137,0-0.263-0.094-0.297-0.233c-0.424-1.738,0.058-3.547,1.149-4.304
						c0.72-0.501,1.586-0.462,2.435,0.118c0.14,0.095,0.175,0.285,0.081,0.425c-0.095,0.14-0.286,0.175-0.425,0.081
						c-0.635-0.432-1.237-0.473-1.742-0.121c-0.877,0.608-1.265,2.18-0.903,3.656c0.039,0.164-0.061,0.33-0.224,0.37
						C258.235,189.986,258.211,189.99,258.187,189.99z"/>
				</g>
			</g>
		</g>
		<path style="fill:none;stroke:#96C1FA;stroke-linecap:round;stroke-linejoin:round;stroke-miterlimit:10;" d="M367.805,348.853
			c0,10.591-52.743,19.178-117.805,19.178s-117.805-8.586-117.805-19.178"/>
		<path style="fill:none;stroke:#96C1FA;stroke-linecap:round;stroke-linejoin:round;stroke-miterlimit:10;" d="M386.983,286.5
			c0,13.618-61.329,24.657-136.983,24.657S113.017,300.117,113.017,286.5"/>
		<path style="fill:none;stroke:#96C1FA;stroke-linecap:round;stroke-linejoin:round;stroke-miterlimit:10;" d="M351.915,407.599
			c0,7.565-45.629,13.698-101.915,13.698s-101.915-6.133-101.915-13.698"/>
	</g>
	<g>
		<g>
			<path style="opacity:0.4;fill:#96C1FA;" d="M128.337,150.766v64.389c0,2.022-1.392,3.781-3.356,4.258
				c-19.554,4.75-31.141,10.662-31.141,17.065v-73.423c0-6.168,10.752-11.88,29.021-16.538
				C125.632,145.811,128.337,147.905,128.337,150.766z"/>
			<g>
				<polygon style="fill:#96C1FA;" points="160.222,194.436 157.444,193.92 157.532,192.277 160.251,192.793 				"/>
				<polygon style="fill:#96C1FA;" points="156.127,193.675 149.169,192.382 149.439,190.743 156.244,192.033 				"/>
				<polygon style="fill:#96C1FA;" points="160.161,197.947 151.513,196.408 151.74,194.614 160.192,196.153 				"/>
				<polygon style="fill:#96C1FA;" points="160.094,201.792 154.919,200.915 155.075,198.946 160.128,199.825 				"/>
				<polygon style="fill:#96C1FA;" points="153.293,200.639 147.96,199.735 148.284,197.766 153.488,198.67 				"/>
			</g>
			<path style="fill:#96C1FA;" d="M138.8,229.825c-0.27-0.06-0.54-0.11-0.81-0.17v-0.01
				C138.26,229.705,138.53,229.765,138.8,229.825z"/>
			<g>
				<path style="fill:#9973D1;" d="M137.99,229.645v4.09c-9.51-1.95-18.84-4.64-27.92-8.07v-4.27
					C119.13,224.895,128.47,227.645,137.99,229.645z"/>
				<path style="fill:#9973D1;" d="M110.07,238.445v4.24c10.13,3.46,20.52,6.12,31.08,7.93v-4.068
					C130.572,244.689,120.177,241.977,110.07,238.445z"/>
				<path style="fill:#9973D1;" d="M125.4,234.834c-5.182-1.416-10.288-3.043-15.33-4.889v4.25c5.04,1.81,10.16,3.41,15.33,4.79
					V234.834z"/>
			</g>
			<g>
				<path style="fill:#9973D1;" d="M123.086,198.733l-4.285-0.087c0.074-4.959-3.328-9.069-7.578-9.156l0.075-4.999
					C117.922,184.625,123.202,191.004,123.086,198.733z"/>
				<path style="fill:#193B59;" d="M123.086,198.733c-0.058,3.869-1.456,7.341-3.662,9.827l-2.981-3.601
					c1.421-1.601,2.32-3.823,2.358-6.313L123.086,198.733z"/>
			</g>
			<path style="opacity:0.6;fill:#96C1FA;" d="M168.073,191.21V255.8c0,2.632-2.31,4.672-4.922,4.353
				c-41.798-5.103-69.312-13.8-69.312-23.675v-73.423c0,9.958,27.982,18.719,70.378,23.804
				C166.417,187.123,168.073,188.994,168.073,191.21z"/>
			<path style="fill:#FAFAFF;" d="M119.424,208.559c-2.215,2.485-5.238,3.994-8.546,3.927c-6.625-0.135-11.905-6.503-11.789-14.242
				c0.116-7.729,5.583-13.888,12.208-13.754l-0.075,4.999c-4.251-0.087-7.774,3.882-7.848,8.842
				c-0.074,4.969,3.328,9.069,7.578,9.156c2.125,0.043,4.069-0.927,5.49-2.529L119.424,208.559z"/>
			<g>
				<path style="fill:#FAFAFF;" d="M151.43,240.005v4.05c-8.8-1.09-17.49-2.79-26.03-5.07v-4.15c0.35,0.09,0.69,0.2,1.04,0.29
					C134.63,237.305,142.98,238.945,151.43,240.005z"/>
				<path style="fill:#FAFAFF;" d="M151.43,231.945v4.04c-4.51-0.58-8.99-1.33-13.44-2.25v-4.08c0.27,0.06,0.54,0.11,0.81,0.17
					C142.98,230.685,147.19,231.395,151.43,231.945z"/>
				<path style="fill:#FAFAFF;" d="M151.43,248.085v4.03c-3.44-0.41-6.87-0.91-10.28-1.5v-4.07c0.23,0.04,0.47,0.09,0.7,0.13
					C145.03,247.215,148.22,247.685,151.43,248.085z"/>
			</g>
		</g>
		<g>
			<path style="opacity:0.4;fill:#96C1FA;" d="M371.663,150.766v64.389c0,2.022,1.392,3.781,3.356,4.258
				c19.554,4.75,31.141,10.662,31.141,17.065v-73.423c0-6.168-10.752-11.88-29.021-16.538
				C374.368,145.811,371.663,147.905,371.663,150.766z"/>
			<path style="opacity:0.6;fill:#96C1FA;" d="M331.927,191.21V255.8c0,2.632,2.31,4.672,4.922,4.353
				c41.798-5.103,69.312-13.8,69.312-23.675v-73.423c0,9.958-27.982,18.719-70.378,23.804
				C333.583,187.123,331.927,188.994,331.927,191.21z"/>
			<path style="fill:#FAFAFF;" d="M337.407,192.183c21.12-2.575,38.804-6.096,51.186-10.196c3.858-1.277,8.213-2.898,12.089-4.999
				v59.491c-0.353,2.2-12.165,11.717-63.274,18.085V192.183z"/>
			<path style="opacity:0.25;fill:#96C1FA;" d="M371.663,186.523v28.632c0,2.022,1.392,3.781,3.356,4.258
				c11.621,2.823,20.428,6.057,25.662,9.56v-51.985c-3.876,2.101-8.231,3.722-12.089,4.999
				C383.732,183.596,378.044,185.115,371.663,186.523z"/>
			<g>
				<path style="fill:none;stroke:#96C1FA;stroke-linecap:round;stroke-linejoin:round;stroke-miterlimit:10;" d="M342.886,197.01
					c19.357-2.556,35.68-5.932,47.428-9.822c1.753-0.581,3.375-1.155,4.888-1.731v49.012c-2.891,2.027-14.83,8.666-52.316,13.849
					V197.01z"/>
				<path style="fill:none;stroke:#96C1FA;stroke-linecap:round;stroke-linejoin:round;stroke-miterlimit:10;" d="M342.886,241.896
					l20.161-15.408c1.116-0.853,2.574-1.12,3.921-0.716l8.267,2.479c1.493,0.448,3.112,0.069,4.251-0.995l3.599-3.361
					c1.254-1.171,3.075-1.503,4.661-0.85l7.456,3.07"/>
				<path style="fill:none;stroke:#96C1FA;stroke-linecap:round;stroke-linejoin:round;stroke-miterlimit:10;" d="M372.781,211.872
					c0,2.421-1.472,4.383-3.288,4.383c-1.816,0-3.288-1.963-3.288-4.383s1.472-4.383,3.288-4.383
					C371.309,207.489,372.781,209.451,372.781,211.872z"/>
			</g>
		</g>
	</g>
</g>
</svg>
