<svg version="1.1" xmlns="http://www.w3.org/2000/svg" xmlns:xlink="http://www.w3.org/1999/xlink"
  width="437.4" height="117.72967837398956" class="looka-1j8o68f"
  viewBox="0 0 370 99.58843392404239" style="enable-background:new 0 0 500 400;"
  xml:space="preserve">
  
  <defs>
    <linearGradient id="grad2" x1="0%" y1="0%" x2="100%" y2="0%">
      <stop offset="0%" style="stop-color:rgb(102,51,238);stop-opacity:1" /> 
      <stop offset="50%" style="stop-color:rgb(138,43,226);stop-opacity:1" /> 
      <stop offset="100%" style="stop-color:rgb(125,108,173);stop-opacity:1" /> 
    </linearGradient>
    
    <filter id="whiteShadow" x="-20%" y="-20%" width="140%" height="140%">
      <feDropShadow dx="0" dy="0" stdDeviation="3" flood-color="white" flood-opacity="0.7" />
    </filter>
  </defs>
  
  <g id="SvgjsG2197" transform="matrix(1.1122636846993141,0,0,1.1122636846993141,4.064122185566912,-5.593903212896937)" fill="url(#grad2)" filter="url(#whiteShadow)">
    <path xmlns="http://www.w3.org/2000/svg" d="M 70.001021,60.908126 C 68.622608,58.188108 67.145285,55.569902 65.575601,53.061639 58.094083,64.673965 45.56836,75.064135 29.698243,81.525375 l 5.309266,13.040633 C 51.421671,87.88435 63.626862,75.463114 70.001021,60.908126 Z" stroke="white" stroke-width="1.5">
    </path>
    <path xmlns="http://www.w3.org/2000/svg" d="m 37.525865,76.809637 c 2.171217,-1.206804 4.270728,-2.478348 6.294108,-3.809591 C 29.857827,66.307862 16.936783,52.331384 9.3857867,33.784604 L -3.6539196,39.093492 C 4.151638,58.27083 19.793082,71.718464 37.525865,76.809637 Z" stroke="white" stroke-width="1.5">
    </path>
    <path xmlns="http://www.w3.org/2000/svg" d="M 58.448894,18.069925 53.13963,5.029296 c -18.678298,7.604542 -31.913477,22.643386 -37.293764,39.803947 1.305283,2.150557 2.682822,4.213393 4.114126,6.201433 6.947823,-13.397889 20.595079,-25.679595 38.488902,-32.964751 z" stroke="white" stroke-width="1.5">
    </path>
    <path xmlns="http://www.w3.org/2000/svg" d="M 86.252811,60.179111 C 79.002346,42.370497 64.998815,29.506309 48.838299,23.681081 c -2.333081,1.368798 -4.578063,2.810777 -6.728291,4.32107 12.665286,7.216938 24.154499,20.421334 31.10217,37.486225 l 13.040633,-5.309265 z" stroke="white" stroke-width="1.5">
    </path>
    <circle xmlns="http://www.w3.org/2000/svg" cx="43.209587" cy="51.021019" r="8.1112623" stroke="white" stroke-width="1">
    </circle>
</g>

    <g id="SvgjsG2198" transform="matrix(2.094930770043692,0,0,2.094930770043692,116.80899738178407,-3.9318459269458117)" fill="url(#grad2)" stroke="white" stroke-width="1">
    <path d="M22.949 27.344 l5.6641 12.734 l-11.582 0 l-3.6719 -8.8086 l-2.0313 8.8086 l-9.8047 0 l2.9297 -12.734 l-1.9727 0 l3.7695 -16.484 l9.8242 0 l-1.8945 8.2031 c2.5586 -2.7344 5.0586 -5.5078 7.5977 -8.2031 l11.289 0 l-13.32 13.672 l1.1914 2.8125 l2.0117 0 z M48.047125 26.719 l-2.9688 13.359 l-9.9023 0 l3.0469 -13.359 l-1.7773 0 l1.9727 -8.5547 l-7.8125 0 l1.7188 -7.4023 l25.352 0 l-1.6602 7.4023 l-7.793 0 l-1.9141 8.5547 l1.7383 0 z M51.56253125 29.141 c0.15625 -0.66406 0.37109 -1.25 0.56641 -1.875 l-2.168 0 c4.6875 -12.754 24.766 -14.023 22.168 0 l2.1875 0 c-0.039063 0.23438 -0.039063 0.46875 -0.097656 0.72266 l-0.83984 3.2617 l-12.93 0 c-0.66406 4.8242 8.4961 3.3594 9.3945 1.6211 l2.9883 0 l-1.4258 5.5664 c-7.7148 4.4336 -22.715 3.3203 -19.844 -9.2969 z M65.41003125 25.371000000000002 c0.42969 -2.1289 -4.2578 -3.3398 -6.4648 0 c0.019531 0 6.4648 0.019531 6.4648 0 z M75.7227 29.375 c0.13672 -0.625 0.29297 -1.25 0.48828 -1.7969 l-2.0703 0 c3.2031 -8.9258 13.594 -12.656 22.09 -7.7539 l-1.6211 6.9531 l-3.2617 0 c-0.50781 -4.0234 -5.6055 -3.5156 -7.6563 0.80078 l2.0508 0 c-0.25391 0.54688 -0.46875 1.1328 -0.625 1.7969 c-1.6211 7.1289 5.4297 5.6445 7.1484 2.4805 l3.2813 0 l-1.6211 7.0313 c-8.5156 3.1641 -21.191 3.4375 -18.203 -9.5117 z M111.5035 27.578 l-2.1094 0 c0.058594 -0.21484 0.097656 -0.44922 0.097656 -0.68359 c0.27344 -2.207 -0.625 -2.3438 -2.4219 -1.3477 l-0.46875 2.0313 l2.0898 0 l-2.8711 12.422 l-9.2773 0 l2.8906 -12.422 l-2.1094 0 l3.9258 -17.109 l9.2773 0 l-1.8945 8.2227 c2.9297 -1.3477 7.8906 -1.875 9.9219 1.1328 c0.99609 1.4844 1.1523 3.6133 0.48828 6.4453 l-0.3125 1.3086 l2.1289 0 l-2.8516 12.422 l-9.3359 0 l2.4414 -10.625 c0.097656 -0.35156 0.27344 -1.0742 0.39063 -1.7969 z">
    </path>
  </g>
</svg>